<svg id="Layer_1" data-name="Layer 1" xmlns="http://www.w3.org/2000/svg" viewBox="0 0 616.59 690"><defs><style>.cls-1{fill-rule:evenodd;}</style></defs><title>KairosLogoHeader</title><path class="cls-1" d="M501.55,602.71,486.4,617.83c-.38-.36-1-.89-1.52-1.45q-42.35-42.33-84.67-84.66Q352.87,484.38,305.55,437,264.5,396,223.41,354.93L210.52,342c-1.62-1.63-1.63-1.86,0-3.48l57.35-57.35c.37-.37.78-.7,1.44-1.27.06,1,.14,1.57.14,2.17,0,8.72,0,17.44,0,26.16a4.28,4.28,0,0,1-1.42,3.34Q254.59,325,241.22,338.39c-.61.61-1.18,1.26-1.93,2.05Z"/><path class="cls-1" d="M293.77,390.36c-1.32-1.37-2.63-2.77-4-4.12-5-5-10-10.09-15.1-15a5.83,5.83,0,0,1-1.9-4.6q.07-150.09,0-300.18c0-5.92-.26-11.84,0-17.75a86.29,86.29,0,0,1,4.73-26.57,43,43,0,0,1,6.4-11.74C293.36-1.8,314.09-2.22,323.31,12a50.56,50.56,0,0,1,7,18.48,109.46,109.46,0,0,1,1.59,27.47c-.11,1.75-.11,3.52-.26,5.27A9.87,9.87,0,0,1,316.72,71a7.1,7.1,0,0,1-3.88-6.67c.12-5.27.1-10.55.12-15.83A70.31,70.31,0,0,0,311.58,32a23,23,0,0,0-2.36-6.24c-2.39-4.07-6.78-4.18-9.61-.37-2.3,3.1-3.15,6.78-3.83,10.49a99,99,0,0,0-1.42,17.19c0,4.24,0,8.47,0,12.71V390.12Z"/><path class="cls-1" d="M272.84,409.38c1.14,1,1.88,1.52,2.53,2.16q4.17,4.13,8.3,8.29c3.38,3.4,6.74,6.8,10.08,10.24a2.7,2.7,0,0,1,.6,1.45,15.39,15.39,0,0,1,0,2.15V621.82c0,6.56.12,13.12-.12,19.67a86,86,0,0,1-4.72,26.33,37.35,37.35,0,0,1-7.83,13.35c-8.89,9.34-24.25,10.13-33.68,1.73a30.25,30.25,0,0,1-7.39-10.53,66.19,66.19,0,0,1-4.88-19,133.35,133.35,0,0,1-.38-26.35c.31-4.22,2.39-7.3,6.38-8.76a9.64,9.64,0,0,1,10.45,2.17,5.62,5.62,0,0,1,1.9,4.46c-.07,6.24-.06,12.48,0,18.72a62.43,62.43,0,0,0,1.37,14.3,24.56,24.56,0,0,0,2.21,6c2.44,4.34,7,4.48,9.9.42,2.2-3.07,3-6.68,3.7-10.3,1.35-7.27,1.49-14.63,1.5-22q.06-109.68.08-219.35C272.85,411.83,272.84,410.9,272.84,409.38Z"/><path class="cls-1" d="M486.33,62.33l15.12,15L297.77,281v-2.15c0-8.4.05-16.8,0-25.2a5.31,5.31,0,0,1,1.79-4.17Q360.14,189,420.7,128.36q32-32,64-64A25.15,25.15,0,0,0,486.33,62.33Z"/><path class="cls-1" d="M407.69,339.35c-1.35,32.68-15.4,59-43.73,77.43-2.78,1.81-3.24,1.72-5.55-.58q-4.77-4.72-9.52-9.49c-2.43-2.44-2.25-3.52.82-5.24,18-10.1,29.89-25.15,35.08-45.09A71.59,71.59,0,0,0,358,280.56c-.58-.43-1.2-.81-1.74-1.28a2.35,2.35,0,0,1-.27-3.74c1.3-1.41,2.7-2.72,4.06-4.08,2-2,4.07-4.08,6.12-6.1s2.84-2.07,5.13-.33a92,92,0,0,1,36,66.54C407.38,333.88,407.5,336.19,407.69,339.35Z"/><path class="cls-1" d="M356.8,341.21c-.15,11.17-8.37,21-21.08,21-12,0-21-8.9-21.05-21,0-12.81,9.93-21.12,21.18-21.12A20.94,20.94,0,0,1,356.8,341.21Z"/></svg>