<?xml version="1.0" encoding="utf-8"?>
<!-- Generator: Adobe Illustrator 16.0.0, SVG Export Plug-In . SVG Version: 6.00 Build 0)  -->
<!DOCTYPE svg PUBLIC "-//W3C//DTD SVG 1.1//EN" "http://www.w3.org/Graphics/SVG/1.1/DTD/svg11.dtd">
<svg version="1.1" id="Layer_1" xmlns="http://www.w3.org/2000/svg" xmlns:xlink="http://www.w3.org/1999/xlink" x="0px" y="0px"
	 width="1440px" height="864px" viewBox="0 0 1440 864" enable-background="new 0 0 1440 864" xml:space="preserve">
<g>
	<path fill-rule="evenodd" clip-rule="evenodd" d="M865.783,686.73c-5.128,5.116-10.092,10.068-15.151,15.116
		c-0.382-0.362-0.966-0.89-1.521-1.445c-28.224-28.22-56.447-56.439-84.667-84.664c-31.555-31.562-63.102-63.133-94.66-94.691
		c-27.373-27.374-54.758-54.736-82.137-82.104c-4.299-4.297-8.602-8.592-12.893-12.897c-1.618-1.624-1.625-1.863-0.009-3.48
		c19.113-19.12,38.231-38.235,57.352-57.348c0.37-0.37,0.782-0.697,1.438-1.275c0.064,0.966,0.139,1.571,0.14,2.175
		c0.007,8.718-0.023,17.437,0.034,26.155c0.009,1.4-0.442,2.369-1.424,3.343c-8.969,8.903-17.893,17.852-26.826,26.791
		c-0.61,0.61-1.184,1.256-1.932,2.053C691.095,512.033,778.558,599.5,865.783,686.73z"/>
	<path fill-rule="evenodd" clip-rule="evenodd" d="M658.005,474.376c-1.323-1.374-2.627-2.767-3.973-4.117
		c-5.014-5.031-9.998-10.095-15.094-15.042c-1.375-1.335-1.9-2.688-1.899-4.603c0.045-100.06,0.042-200.12,0.036-300.18
		c0-5.917-0.258-11.842-0.05-17.751c0.32-9.06,1.618-17.987,4.731-26.569c1.537-4.236,3.628-8.158,6.403-11.736
		c9.433-12.161,30.161-12.582,39.382,1.609c3.685,5.67,5.776,11.914,7.009,18.481c1.704,9.081,2.206,18.243,1.597,27.465
		c-0.116,1.755-0.113,3.52-0.26,5.272c-0.623,7.402-8.579,11.531-14.932,7.758c-2.517-1.495-3.952-3.576-3.881-6.663
		c0.123-5.277,0.096-10.557,0.123-15.835c0.029-5.526-0.124-11.053-1.387-16.453c-0.502-2.15-1.244-4.34-2.353-6.232
		c-2.391-4.078-6.783-4.187-9.611-0.377c-2.304,3.104-3.151,6.787-3.828,10.494c-1.036,5.68-1.397,11.424-1.427,17.189
		c-0.022,4.236,0.021,8.473,0.021,12.709c0.002,61.988,0.001,123.976,0.001,185.963c0,45.191,0,90.382,0,135.573
		c0,0.937,0,1.873,0,2.81C658.411,474.22,658.208,474.298,658.005,474.376z"/>
	<path fill-rule="evenodd" clip-rule="evenodd" d="M637.079,493.396c1.139,0.969,1.877,1.521,2.526,2.162
		c2.783,2.75,5.547,5.518,8.303,8.293c3.372,3.396,6.74,6.796,10.072,10.231c0.343,0.354,0.531,0.943,0.605,1.45
		c0.102,0.705,0.029,1.436,0.029,2.155c0,62.718,0.002,125.435-0.003,188.151c0,6.555,0.127,13.117-0.119,19.664
		c-0.338,8.979-1.625,17.831-4.715,26.336c-1.791,4.929-4.182,9.517-7.833,13.353c-8.892,9.338-24.245,10.124-33.683,1.726
		c-3.287-2.925-5.602-6.549-7.384-10.529c-2.705-6.043-4.058-12.438-4.884-18.969c-1.109-8.77-1.009-17.556-0.376-26.348
		c0.304-4.228,2.385-7.301,6.381-8.763c3.845-1.405,7.402-0.654,10.445,2.172c1.294,1.201,1.927,2.617,1.904,4.458
		c-0.077,6.238-0.067,12.479-0.018,18.719c0.038,4.802,0.23,9.611,1.369,14.297c0.504,2.075,1.173,4.191,2.21,6.04
		c2.435,4.338,6.985,4.479,9.899,0.418c2.201-3.066,3.023-6.673,3.696-10.299c1.349-7.27,1.494-14.631,1.498-21.99
		c0.04-73.115,0.056-146.23,0.079-219.346C637.08,495.85,637.079,494.92,637.079,493.396z"/>
	<path fill-rule="evenodd" clip-rule="evenodd" d="M850.562,146.351c5.379,5.333,10.365,10.277,15.126,14.998
		c-67.831,67.833-135.722,135.723-203.686,203.688c0-0.625,0-1.389,0-2.153c0-8.399,0.054-16.8-0.043-25.198
		c-0.021-1.772,0.567-2.949,1.787-4.167c40.416-40.36,80.799-80.754,121.187-121.143c21.324-21.326,42.651-42.65,63.966-63.985
		C849.518,147.77,850.015,147.027,850.562,146.351z"/>
	<path fill-rule="evenodd" clip-rule="evenodd" d="M771.923,423.364c-1.345,32.678-15.403,59.033-43.731,77.435
		c-2.777,1.805-3.242,1.717-5.552-0.578c-3.178-3.156-6.354-6.315-9.513-9.491c-2.43-2.443-2.25-3.525,0.819-5.245
		c18.025-10.102,29.885-25.148,35.079-45.084c7.492-28.767-3.363-58.417-26.821-75.824c-0.578-0.429-1.195-0.811-1.739-1.278
		c-1.309-1.126-1.444-2.46-0.27-3.743c1.295-1.414,2.704-2.724,4.062-4.08c2.038-2.034,4.066-4.078,6.114-6.102
		c2.03-2.007,2.847-2.071,5.13-0.324c11.708,8.958,20.773,20.087,27.154,33.365c5.038,10.483,7.993,21.548,8.796,33.167
		C771.61,417.893,771.732,420.206,771.923,423.364z"/>
	<path fill-rule="evenodd" clip-rule="evenodd" d="M721.033,425.227c-0.144,11.165-8.37,20.982-21.079,20.99
		c-12.006,0.009-21.025-8.902-21.05-21c-0.026-12.812,9.934-21.125,21.177-21.121C711.755,404.1,721.072,413.54,721.033,425.227z"/>
</g>
</svg>
