<svg id="Layer_1" data-name="Layer 1" xmlns="http://www.w3.org/2000/svg" viewBox="0 0 690 690"><defs><style>.cls-1{fill-rule:evenodd;}</style></defs><title>KairosLogoSquare</title><path class="cls-1" d="M538.25,602.71c-5.12,5.12-10.09,10.07-15.15,15.12-.38-.36-1-.89-1.52-1.45q-42.33-42.33-84.67-84.66Q389.59,484.38,342.25,437l-82.13-82.1L247.22,342c-1.61-1.63-1.62-1.86,0-3.48l57.35-57.35c.37-.37.78-.7,1.44-1.27.06,1,.13,1.57.14,2.17,0,8.72,0,17.44,0,26.16a4.28,4.28,0,0,1-1.42,3.34Q291.31,325,277.93,338.39c-.61.61-1.18,1.26-1.93,2.05Z"/><path class="cls-1" d="M330.48,390.36c-1.33-1.37-2.63-2.77-4-4.12-5-5-10-10.09-15.09-15a5.8,5.8,0,0,1-1.9-4.6q.06-150.09,0-300.18c0-5.92-.26-11.84-.05-17.75a86,86,0,0,1,4.73-26.57,42.43,42.43,0,0,1,6.4-11.74C330.06-1.8,350.79-2.22,360,12a50.21,50.21,0,0,1,7,18.48,109.47,109.47,0,0,1,1.6,27.47c-.12,1.75-.12,3.52-.26,5.27A9.87,9.87,0,0,1,353.43,71a7.11,7.11,0,0,1-3.89-6.67c.13-5.27.1-10.55.13-15.83A70.32,70.32,0,0,0,348.28,32a22.61,22.61,0,0,0-2.35-6.24c-2.39-4.07-6.79-4.18-9.61-.37-2.31,3.1-3.15,6.78-3.83,10.49a98,98,0,0,0-1.43,17.19c0,4.24,0,8.47,0,12.71V390.12Z"/><path class="cls-1" d="M309.55,409.38c1.14,1,1.88,1.52,2.53,2.16q4.17,4.13,8.3,8.29c3.37,3.4,6.74,6.8,10.07,10.24a2.79,2.79,0,0,1,.61,1.45,15.4,15.4,0,0,1,0,2.15q0,94.08,0,188.15c0,6.56.13,13.12-.12,19.67a86,86,0,0,1-4.71,26.33,37.23,37.23,0,0,1-7.84,13.35c-8.89,9.34-24.24,10.13-33.68,1.73a30.22,30.22,0,0,1-7.38-10.53,66.21,66.21,0,0,1-4.89-19,132.59,132.59,0,0,1-.37-26.35c.3-4.22,2.38-7.3,6.38-8.76a9.63,9.63,0,0,1,10.44,2.17,5.63,5.63,0,0,1,1.91,4.46c-.08,6.24-.07,12.48,0,18.72a62.43,62.43,0,0,0,1.37,14.3,23.77,23.77,0,0,0,2.21,6c2.43,4.34,7,4.48,9.9.42,2.2-3.07,3-6.68,3.69-10.3,1.35-7.27,1.5-14.63,1.5-22q.06-109.68.08-219.35Z"/><path class="cls-1" d="M523,62.33l15.13,15L334.47,281v-2.15c0-8.4.06-16.8,0-25.2a5.31,5.31,0,0,1,1.79-4.17Q396.84,189,457.4,128.36q32-32,64-64A23.09,23.09,0,0,0,523,62.33Z"/><path class="cls-1" d="M444.39,339.35c-1.34,32.68-15.4,59-43.73,77.43-2.77,1.81-3.24,1.72-5.55-.58q-4.77-4.72-9.51-9.49c-2.43-2.44-2.25-3.52.82-5.24,18-10.1,29.88-25.15,35.08-45.09a71.59,71.59,0,0,0-26.83-75.82c-.57-.43-1.19-.81-1.73-1.28a2.35,2.35,0,0,1-.27-3.74c1.29-1.41,2.7-2.72,4.06-4.08,2-2,4.06-4.08,6.11-6.1s2.85-2.07,5.13-.33a91.33,91.33,0,0,1,27.16,33.37,90.42,90.42,0,0,1,8.79,33.17C444.08,333.88,444.2,336.19,444.39,339.35Z"/><path class="cls-1" d="M393.5,341.21c-.14,11.17-8.37,21-21.08,21-12,0-21-8.9-21.05-21,0-12.81,9.94-21.12,21.18-21.12A20.93,20.93,0,0,1,393.5,341.21Z"/></svg>