<svg xmlns="http://www.w3.org/2000/svg" xmlns:xlink="http://www.w3.org/1999/xlink" viewBox="0 0 172.02 172.02"><defs><style>.cls-1{fill:#231f20;stroke:#231f20;stroke-width:3px;}.cls-1,.cls-10,.cls-11,.cls-12,.cls-2,.cls-3{stroke-miterlimit:10;}.cls-2,.cls-3{fill:none;}.cls-10,.cls-11,.cls-12,.cls-2,.cls-3,.cls-4,.cls-5,.cls-6,.cls-7,.cls-8,.cls-9{stroke:#fff;}.cls-2{stroke-width:0.92px;}.cls-10,.cls-11,.cls-12,.cls-3,.cls-4,.cls-5,.cls-6,.cls-7,.cls-8,.cls-9{stroke-width:0.96px;}.cls-4,.cls-5,.cls-6,.cls-7,.cls-8,.cls-9{stroke-linecap:round;stroke-linejoin:round;}.cls-4{fill:url(#linear-gradient);}.cls-5{fill:url(#linear-gradient-2);}.cls-6{fill:url(#linear-gradient-3);}.cls-7{fill:url(#linear-gradient-4);}.cls-8{fill:url(#linear-gradient-5);}.cls-9{fill:url(#linear-gradient-6);}.cls-10{fill:url(#linear-gradient-7);}.cls-11{fill:url(#linear-gradient-8);}.cls-12{fill:url(#linear-gradient-9);}.cls-13{fill:url(#White_Black_2);}.cls-14{fill:url(#linear-gradient-10);}.cls-15{fill:url(#linear-gradient-11);}.cls-16{fill:url(#linear-gradient-12);}</style><linearGradient id="linear-gradient" x1="134.14" y1="77.91" x2="121.66" y2="56.3" gradientUnits="userSpaceOnUse"><stop offset="0" stop-color="#d3d2d2"/><stop offset="0.23" stop-color="#d0cfcf"/><stop offset="0.42" stop-color="#c6c5c5"/><stop offset="0.58" stop-color="#b6b4b4"/><stop offset="0.74" stop-color="#9f9d9d"/><stop offset="0.87" stop-color="#878484"/></linearGradient><linearGradient id="linear-gradient-2" x1="102.79" y1="59.54" x2="138.93" y2="59.54" gradientUnits="userSpaceOnUse"><stop offset="0" stop-color="#fff"/><stop offset="0.17" stop-color="#fbfbfb"/><stop offset="0.35" stop-color="#eee"/><stop offset="0.53" stop-color="#d9d8d8"/><stop offset="0.72" stop-color="#bcbaba"/><stop offset="0.91" stop-color="#969393"/><stop offset="0.98" stop-color="#878484"/></linearGradient><linearGradient id="linear-gradient-3" x1="33.09" y1="59.59" x2="69.66" y2="59.59" gradientUnits="userSpaceOnUse"><stop offset="0.02" stop-color="#878484"/><stop offset="0.09" stop-color="#969393"/><stop offset="0.28" stop-color="#bcbaba"/><stop offset="0.47" stop-color="#d9d8d8"/><stop offset="0.65" stop-color="#eee"/><stop offset="0.83" stop-color="#fbfbfb"/><stop offset="1" stop-color="#fff"/></linearGradient><linearGradient id="linear-gradient-4" x1="91.69" y1="141.32" x2="75.4" y2="113.1" gradientUnits="userSpaceOnUse"><stop offset="0.11" stop-color="#292526"/><stop offset="0.14" stop-color="#2b2728"/><stop offset="0.5" stop-color="#484445"/><stop offset="0.65" stop-color="#3f3b3c"/><stop offset="0.89" stop-color="#262223"/><stop offset="0.92" stop-color="#231f20"/></linearGradient><linearGradient id="linear-gradient-5" x1="96.88" y1="133.59" x2="82.83" y2="119.53" gradientUnits="userSpaceOnUse"><stop offset="0" stop-color="#fff"/><stop offset="0.14" stop-color="#f3f3f3"/><stop offset="0.4" stop-color="#d5d4d4"/><stop offset="0.73" stop-color="#a3a1a1"/><stop offset="0.91" stop-color="#878484"/></linearGradient><linearGradient id="linear-gradient-6" x1="33.09" y1="70.49" x2="64.2" y2="70.49" xlink:href="#linear-gradient-4"/><linearGradient id="linear-gradient-7" x1="64.04" y1="45.53" x2="107.98" y2="45.53" gradientUnits="userSpaceOnUse"><stop offset="0" stop-color="#8b858a"/><stop offset="0.07" stop-color="#9a959a"/><stop offset="0.37" stop-color="#dad9db"/><stop offset="0.51" stop-color="#f3f4f4"/><stop offset="0.76" stop-color="#b7b5b7"/><stop offset="1" stop-color="#817c80"/></linearGradient><linearGradient id="linear-gradient-8" x1="84.02" y1="113.25" x2="123.68" y2="90.35" gradientUnits="userSpaceOnUse"><stop offset="0" stop-color="#e5e2df"/><stop offset="0.12" stop-color="#e9e8e5"/><stop offset="0.26" stop-color="#f3f4f4"/><stop offset="0.37" stop-color="#eeefef"/><stop offset="0.52" stop-color="#e0e0e1"/><stop offset="0.67" stop-color="#c9c7c9"/><stop offset="0.84" stop-color="#a8a5a8"/><stop offset="1" stop-color="#817c80"/></linearGradient><linearGradient id="linear-gradient-9" x1="106.9" y1="148.79" x2="43.3" y2="85.19" xlink:href="#linear-gradient-8"/><linearGradient id="White_Black_2" x1="112.46" y1="143.24" x2="48.85" y2="79.64" gradientUnits="userSpaceOnUse"><stop offset="0" stop-color="#fff"/><stop offset="1" stop-color="#231f20"/></linearGradient><linearGradient id="linear-gradient-10" x1="64.2" y1="69.03" x2="107.82" y2="69.03" xlink:href="#linear-gradient-2"/><linearGradient id="linear-gradient-11" x1="76.67" y1="111.46" x2="104.96" y2="62.46" gradientUnits="userSpaceOnUse"><stop offset="0.21" stop-color="#f3f4f4"/><stop offset="0.29" stop-color="#eceded"/><stop offset="0.42" stop-color="#dad9db"/><stop offset="0.57" stop-color="#bbb9bc"/><stop offset="0.59" stop-color="#b5b3b6"/><stop offset="0.67" stop-color="#9e9b9e"/><stop offset="0.76" stop-color="#898488"/><stop offset="0.82" stop-color="#817c80"/></linearGradient><linearGradient id="linear-gradient-12" x1="90.57" y1="81.66" x2="71.91" y2="92.43" xlink:href="#linear-gradient-4"/></defs><title>sacredgeo1</title><g id="Layer_2" data-name="Layer 2"><g id="draft_4" data-name="draft 4"><g id="Layer_3" data-name="Layer 3"><circle class="cls-1" cx="86.01" cy="86.01" r="84.51"/><circle class="cls-2" cx="86.01" cy="86.01" r="79.91"/><circle class="cls-3" cx="86.17" cy="27.05" r="13.18"/><circle class="cls-3" cx="86.17" cy="144.97" r="13.18"/><circle class="cls-3" cx="138.93" cy="55.16" r="13.18"/><circle class="cls-3" cx="138.93" cy="116.86" r="13.18"/><circle class="cls-3" cx="33.09" cy="55.16" r="13.18"/><circle class="cls-3" cx="33.09" cy="117.73" r="13.18"/><polygon class="cls-4" points="120.75 85.64 138.93 54.98 108.14 64.11 120.75 85.64"/><polygon class="cls-5" points="138.93 54.98 102.8 54.98 108.14 64.11 138.93 54.98"/><polygon class="cls-6" points="64.2 64.2 64.2 64.2 69.66 54.98 33.09 54.98 64.2 64.2 64.2 64.2"/><polygon class="cls-7" points="69.22 116.67 85.69 144.78 85.69 116.67 69.22 116.67"/><polygon class="cls-8" points="85.69 144.78 102.35 116.67 85.69 116.67 85.69 144.78"/><polygon class="cls-9" points="64.2 64.2 33.09 54.98 51.27 86.01 64.2 64.2 64.2 64.2"/><polygon class="cls-10" points="107.98 64.11 86.17 26.86 64.04 64.2 107.66 64.2 107.98 64.11"/><polygon class="cls-11" points="108.14 64.2 107.82 64.29 108.14 64.29 86.05 116.76 138.93 116.76 108.14 64.2"/><polygon class="cls-12" points="33.09 116.76 85.97 116.76 64.2 64.29 33.09 116.76"/><polygon class="cls-13" points="86.05 116.76 85.97 116.76 86.01 116.86 86.05 116.76"/><polygon class="cls-14" points="107.82 64.33 64.2 64.33 64.2 64.33 86.01 73.74 107.82 64.33"/><polygon class="cls-15" points="86.01 116.86 108.14 64.29 107.82 64.29 86.01 73.72 86.01 116.86"/><polygon class="cls-16" points="86.01 73.75 64.2 64.33 86.01 116.86 86.01 73.75"/></g></g></g></svg>