<svg xmlns="http://www.w3.org/2000/svg" viewBox="0 0 172.02 172.02"><defs><style>.cls-1{fill:#231f20;stroke:#231f20;stroke-width:3px;}.cls-1,.cls-2,.cls-3,.cls-4{stroke-miterlimit:10;}.cls-2,.cls-3,.cls-4,.cls-5,.cls-6{fill:none;stroke:#fff;}.cls-2{stroke-width:0.92px;}.cls-4{stroke-width:0.75px;}.cls-5{stroke-linecap:round;}.cls-5,.cls-6{stroke-linejoin:round;stroke-width:0.25px;}</style></defs><title>sacredgeo2</title><g id="Layer_2" data-name="Layer 2"><g id="draft_4" data-name="draft 4"><g id="Layer_3" data-name="Layer 3"><circle class="cls-1" cx="86.01" cy="86.01" r="84.51"/><circle class="cls-2" cx="86.01" cy="86.01" r="79.91"/><circle class="cls-3" cx="85.96" cy="28.83" r="13.4"/><circle class="cls-3" cx="135.34" cy="57.86" r="13.4"/><circle class="cls-3" cx="36.68" cy="56.96" r="13.4"/><circle class="cls-3" cx="61.02" cy="71.26" r="14.2"/><circle class="cls-3" cx="110.87" cy="71.26" r="14.2"/><circle class="cls-3" cx="110.87" cy="99.85" r="14.2"/><circle class="cls-3" cx="61.02" cy="99.31" r="14.2"/><circle class="cls-3" cx="86.03" cy="85.74" r="14.2"/><circle class="cls-3" cx="86.03" cy="57.06" r="14.2"/><circle class="cls-3" cx="86.03" cy="114.95" r="14.2"/><circle class="cls-3" cx="36.68" cy="113.26" r="13.4"/><circle class="cls-3" cx="85.96" cy="143.19" r="13.4"/><circle class="cls-3" cx="135.34" cy="113.26" r="13.4"/><polygon class="cls-4" points="85.96 28.83 36.68 56.96 36.68 113.26 85.96 144.54 136.13 114.3 136.13 56.96 85.96 28.83"/><polygon class="cls-5" points="85.96 28.83 36.68 113.26 136.13 114.3 85.96 28.83"/><polygon class="cls-5" points="36.68 56.96 85.96 144.54 136.13 56.96 36.68 56.96"/><line class="cls-5" x1="85.96" y1="28.83" x2="85.96" y2="144.54"/><line class="cls-5" x1="36.68" y1="56.96" x2="136.13" y2="114.3"/><line class="cls-5" x1="136.13" y1="56.96" x2="36.68" y2="113.26"/><line class="cls-5" x1="110.87" y1="71.26" x2="36.68" y2="56.96"/><line class="cls-5" x1="61.02" y1="71.57" x2="136.13" y2="56.96"/><polygon class="cls-5" points="85.96 56.96 61.02 71.57 60.71 99.66 85.96 113.78 111.44 100.06 110.87 71.26 85.96 56.96"/><polygon class="cls-6" points="85.96 56.96 36.68 113.26 111.44 100.06 85.96 56.96"/><polygon class="cls-6" points="61.02 71.57 110.87 71.26 85.96 144.54 61.02 71.57"/><polygon class="cls-6" points="85.96 28.83 60.71 99.66 111.44 100.06 85.96 28.83"/><polyline class="cls-6" points="136.13 56.96 85.96 113.78 36.68 56.96"/><polygon class="cls-6" points="85.96 56.96 60.71 99.66 136.13 114.3 85.96 56.96"/></g></g></g></svg>