<svg xmlns="http://www.w3.org/2000/svg" viewBox="0 0 172.02 172.02"><defs><style>.cls-1,.cls-6{fill:#231f20;}.cls-1{stroke:#231f20;stroke-width:3px;}.cls-1,.cls-2,.cls-6{stroke-miterlimit:10;}.cls-2,.cls-3,.cls-4,.cls-5{fill:none;}.cls-2,.cls-3,.cls-4,.cls-5,.cls-6{stroke:#fff;}.cls-2{stroke-width:0.92px;}.cls-3,.cls-4,.cls-5{stroke-linejoin:round;}.cls-3{stroke-width:0.31px;}.cls-4{stroke-width:0.31px;}.cls-5{stroke-width:0.31px;}.cls-6{stroke-width:1.23px;}</style></defs><title>sacredgeo3</title><g id="Layer_2" data-name="Layer 2"><g id="draft_4" data-name="draft 4"><g id="Layer_3" data-name="Layer 3"><circle class="cls-1" cx="86.01" cy="86.01" r="84.51"/><circle class="cls-2" cx="86.01" cy="86.01" r="79.91"/><path class="cls-3" d="M111.8,49.78A14.18,14.18,0,1,1,97.62,35.46,14.18,14.18,0,0,1,111.8,49.78Z"/><path class="cls-3" d="M87.49,50A14.18,14.18,0,1,1,73.32,35.67,14.17,14.17,0,0,1,87.49,50Z"/><path class="cls-3" d="M112.19,35.94A14.18,14.18,0,1,1,98,21.62,14.17,14.17,0,0,1,112.19,35.94Z"/><path class="cls-4" d="M87.51,35.83A14.32,14.32,0,1,1,73.19,21.37,14.32,14.32,0,0,1,87.51,35.83Z"/><path class="cls-5" d="M62.86,50.38A14.43,14.43,0,1,1,48.43,35.8,14.43,14.43,0,0,1,62.86,50.38Z"/><path class="cls-5" d="M63.32,79.2A14.43,14.43,0,1,1,48.89,64.63,14.43,14.43,0,0,1,63.32,79.2Z"/><path class="cls-5" d="M63.32,93.31A14.43,14.43,0,1,1,48.89,78.74,14.43,14.43,0,0,1,63.32,93.31Z"/><path class="cls-5" d="M50.58,86.54A14.43,14.43,0,1,1,35.94,72.18,14.43,14.43,0,0,1,50.58,86.54Z"/><path class="cls-5" d="M50.58,100.57A14.43,14.43,0,1,1,35.94,86.22,14.42,14.42,0,0,1,50.58,100.57Z"/><path class="cls-5" d="M50.58,71.72A14.43,14.43,0,1,1,35.94,57.37,14.42,14.42,0,0,1,50.58,71.72Z"/><path class="cls-5" d="M107.83,79.2a14.43,14.43,0,1,0,14.43-14.57A14.43,14.43,0,0,0,107.83,79.2Z"/><path class="cls-5" d="M107.83,93.31a14.43,14.43,0,1,0,14.43-14.57A14.43,14.43,0,0,0,107.83,93.31Z"/><path class="cls-5" d="M120.54,86a14.43,14.43,0,1,0,14.64-14.35A14.42,14.42,0,0,0,120.54,86Z"/><path class="cls-5" d="M120.57,100.57a14.43,14.43,0,1,0,14.64-14.35A14.42,14.42,0,0,0,120.57,100.57Z"/><path class="cls-5" d="M120.57,71.72a14.43,14.43,0,1,0,14.64-14.35A14.42,14.42,0,0,0,120.57,71.72Z"/><path class="cls-5" d="M137.15,50.09a14.43,14.43,0,1,1-14.43-14.57A14.43,14.43,0,0,1,137.15,50.09Z"/><path class="cls-3" d="M124.38,43A14.18,14.18,0,1,1,110.2,28.63,14.18,14.18,0,0,1,124.38,43Z"/><path class="cls-3" d="M124.38,57.77A14.18,14.18,0,1,1,110.2,43.45,14.18,14.18,0,0,1,124.38,57.77Z"/><path class="cls-3" d="M75,43A14.18,14.18,0,1,1,60.86,28.63,14.18,14.18,0,0,1,75,43Z"/><path class="cls-3" d="M75,56.94A14.18,14.18,0,1,1,60.86,42.62,14.18,14.18,0,0,1,75,56.94Z"/><path class="cls-3" d="M59.35,122a14.18,14.18,0,1,1,14.18,14.32A14.18,14.18,0,0,1,59.35,122Z"/><path class="cls-3" d="M84.27,121.19a14.18,14.18,0,1,1,14.17,14.32A14.17,14.17,0,0,1,84.27,121.19Z"/><path class="cls-3" d="M59,135.84a14.18,14.18,0,1,1,14.17,14.32A14.16,14.16,0,0,1,59,135.84Z"/><path class="cls-4" d="M83.64,136A14.32,14.32,0,1,1,98,150.41,14.32,14.32,0,0,1,83.64,136Z"/><path class="cls-5" d="M108.5,121.56a14.43,14.43,0,1,1,14.42,14.58A14.42,14.42,0,0,1,108.5,121.56Z"/><path class="cls-5" d="M34,121.7a14.43,14.43,0,1,1,14.43,14.57A14.43,14.43,0,0,1,34,121.7Z"/><path class="cls-3" d="M46.77,128.83A14.18,14.18,0,1,1,61,143.15,14.18,14.18,0,0,1,46.77,128.83Z"/><path class="cls-3" d="M46.77,114.35A14.18,14.18,0,1,1,61,128.67,14.18,14.18,0,0,1,46.77,114.35Z"/><path class="cls-3" d="M96.34,128.6a14.18,14.18,0,1,1,14.18,14.32A14.17,14.17,0,0,1,96.34,128.6Z"/><path class="cls-3" d="M96.11,114.59a14.18,14.18,0,1,1,14.18,14.32A14.18,14.18,0,0,1,96.11,114.59Z"/><circle class="cls-6" cx="85.57" cy="28.79" r="14.18"/><circle class="cls-6" cx="85.57" cy="57.35" r="14.18"/><path class="cls-3" d="M85.52,43.18a13.3,13.3,0,0,1-12,6.6"/><path class="cls-3" d="M85.52,43.18a14,14,0,0,1,2.18,6.6A14.18,14.18,0,0,1,73.53,64"/><path class="cls-3" d="M73.53,64a13.56,13.56,0,0,1,12,7.49"/><path class="cls-3" d="M73.23,49.85A14.18,14.18,0,0,1,85.51,71.12"/><path class="cls-3" d="M73.23,50.31A14.15,14.15,0,0,1,73.46,64"/><path class="cls-3" d="M98.08,49.86a14.18,14.18,0,0,1-24.78.41"/><path class="cls-3" d="M73.3,64.44A14.17,14.17,0,0,1,97.58,64"/><path class="cls-3" d="M85.52,43.18a14,14,0,0,0,12.1,6.6"/><path class="cls-3" d="M85.46,43.24a13.3,13.3,0,0,0-2,6.54A14.17,14.17,0,0,0,97.62,64"/><path class="cls-3" d="M97.62,64a13.55,13.55,0,0,0-12.06,7.42"/><path class="cls-3" d="M98.08,49.85A14.17,14.17,0,0,0,83.91,64c0,2.87.18,5.26,1.65,7.49"/><path class="cls-3" d="M98.16,49.9a14.16,14.16,0,0,0-.22,14.54"/><path class="cls-3" d="M85.52,14.61a13.29,13.29,0,0,1-12,6.61"/><path class="cls-3" d="M85.52,14.61a14,14,0,0,1,2.18,6.61A14.17,14.17,0,0,1,73.53,35.39"/><path class="cls-3" d="M73.53,35.46a13.57,13.57,0,0,1,12,7.5"/><path class="cls-3" d="M73.23,21.29A14.17,14.17,0,0,1,85.51,42.55"/><path class="cls-3" d="M73.23,21.74a14.17,14.17,0,0,1,.23,13.69"/><path class="cls-3" d="M98.08,21.29a14.18,14.18,0,0,1-24.78.42"/><path class="cls-3" d="M73.3,35.88a14.18,14.18,0,0,1,24.28-.46"/><path class="cls-3" d="M85.52,14.61a14,14,0,0,0,12.1,6.61"/><path class="cls-3" d="M85.46,14.67a13.37,13.37,0,0,0-2,6.55A14.16,14.16,0,0,0,97.62,35.39"/><path class="cls-3" d="M97.62,35.46a13.33,13.33,0,0,0-12.11,7.09"/><path class="cls-3" d="M98.08,21.29A14.16,14.16,0,0,0,83.91,35.46c0,2.87.18,5.19,1.65,7.42"/><path class="cls-3" d="M98.16,21.33a14.16,14.16,0,0,0-.22,14.54"/><circle class="cls-6" cx="85.57" cy="85.98" r="14.18"/><path class="cls-3" d="M85.52,71.8a13.29,13.29,0,0,1-12,6.61"/><path class="cls-3" d="M85.52,71.8a14,14,0,0,1,2.18,6.61A14.17,14.17,0,0,1,73.53,92.58"/><path class="cls-3" d="M73.53,92.65a13.57,13.57,0,0,1,12,7.5"/><path class="cls-3" d="M73.23,78.48A14.17,14.17,0,0,1,85.51,99.74"/><path class="cls-3" d="M73.23,78.93a14.17,14.17,0,0,1,.23,13.69"/><path class="cls-3" d="M98.08,78.48a14.18,14.18,0,0,1-24.78.42"/><path class="cls-3" d="M73.3,93.07a14.18,14.18,0,0,1,24.28-.46"/><path class="cls-3" d="M85.52,71.8a14,14,0,0,0,12.1,6.61"/><path class="cls-3" d="M85.46,71.86a13.37,13.37,0,0,0-2,6.55A14.16,14.16,0,0,0,97.62,92.58"/><path class="cls-3" d="M97.62,92.65a13.55,13.55,0,0,0-12.06,7.42"/><path class="cls-3" d="M98.08,78.48A14.16,14.16,0,0,0,83.91,92.65c0,2.87.18,5.26,1.65,7.5"/><path class="cls-3" d="M98.16,78.52a14.16,14.16,0,0,0-.22,14.54"/><circle class="cls-6" cx="85.57" cy="114.6" r="14.18"/><path class="cls-3" d="M85.52,100.43a13.28,13.28,0,0,1-12,6.6"/><path class="cls-3" d="M85.52,100.43A14,14,0,0,1,87.7,107a14.18,14.18,0,0,1-14.17,14.18"/><path class="cls-3" d="M73.53,121.28a13.56,13.56,0,0,1,12,7.49"/><path class="cls-3" d="M73.23,107.1a14.18,14.18,0,0,1,12.28,21.27"/><path class="cls-3" d="M73.23,107.56a14.15,14.15,0,0,1,.23,13.68"/><path class="cls-3" d="M98.08,107.11a14.18,14.18,0,0,1-24.78.41"/><path class="cls-3" d="M73.3,121.69a14.17,14.17,0,0,1,24.28-.45"/><path class="cls-3" d="M85.52,100.43a14,14,0,0,0,12.1,6.6"/><path class="cls-3" d="M85.46,100.49a13.3,13.3,0,0,0-2,6.54,14.17,14.17,0,0,0,14.17,14.18"/><path class="cls-3" d="M97.62,121.28a13.55,13.55,0,0,0-12.06,7.42"/><path class="cls-3" d="M98.08,107.1a14.17,14.17,0,0,0-14.17,14.18c0,2.87.18,5.26,1.65,7.49"/><path class="cls-3" d="M98.16,107.15a14.16,14.16,0,0,0-.22,14.54"/><circle class="cls-6" cx="85.57" cy="143.23" r="14.18"/><path class="cls-3" d="M85.52,129.05a13.29,13.29,0,0,1-12,6.61"/><path class="cls-3" d="M85.52,129.05a14,14,0,0,1,2.18,6.61,14.18,14.18,0,0,1-14.17,14.18"/><path class="cls-3" d="M73.53,149.9a13.57,13.57,0,0,1,12,7.5"/><path class="cls-3" d="M73.23,135.73A14.17,14.17,0,0,1,85.51,157"/><path class="cls-3" d="M73.23,136.18a14.17,14.17,0,0,1,.23,13.69"/><path class="cls-3" d="M98.08,135.73a14.18,14.18,0,0,1-24.78.42"/><path class="cls-3" d="M73.3,150.32a14.18,14.18,0,0,1,24.28-.46"/><path class="cls-3" d="M85.52,129.05a14,14,0,0,0,12.1,6.61"/><path class="cls-3" d="M85.46,129.12a13.3,13.3,0,0,0-2,6.54,14.17,14.17,0,0,0,14.17,14.18"/><path class="cls-3" d="M97.62,149.9a13.55,13.55,0,0,0-12.06,7.42"/><path class="cls-3" d="M98.08,135.73A14.17,14.17,0,0,0,83.91,149.9c0,2.88.18,5.26,1.65,7.5"/><path class="cls-3" d="M98.16,135.78a14.15,14.15,0,0,0-.22,14.53"/><circle class="cls-6" cx="61.29" cy="71.74" r="14.18"/><path class="cls-3" d="M48.86,64.93a13.27,13.27,0,0,1,0,13.69"/><path class="cls-3" d="M48.86,64.93a13.82,13.82,0,0,1,6.84,1.29,14.17,14.17,0,0,1,5.54,19.26"/><path class="cls-3" d="M61.3,85.51a13.58,13.58,0,0,1,12.38-6.9"/><path class="cls-3" d="M48.76,78.91a14.18,14.18,0,0,1,24.55-.46"/><path class="cls-3" d="M49.16,79.13a14.19,14.19,0,0,1,12.08,6.42"/><path class="cls-3" d="M60.79,57.17A14.19,14.19,0,0,1,49.16,79.06"/><path class="cls-3" d="M61.55,85.91A14.17,14.17,0,0,1,72.91,64.45"/><path class="cls-3" d="M48.86,64.93a14,14,0,0,0,11.64-7.4"/><path class="cls-3" d="M48.89,65a13.35,13.35,0,0,0,4.75,4.93,14.18,14.18,0,0,0,19.27-5.55"/><path class="cls-3" d="M73,64.43a13.52,13.52,0,0,0,.65,14.14"/><path class="cls-3" d="M60.78,57.17a14.17,14.17,0,0,0,5.55,19.26c2.51,1.39,4.69,2.38,7.35,2.18"/><path class="cls-3" d="M60.86,57.12a14.19,14.19,0,0,0,12.62,7.23"/><circle class="cls-6" cx="36.42" cy="58.3" r="14.18"/><path class="cls-3" d="M24,51.48a13.31,13.31,0,0,1,0,13.7"/><path class="cls-3" d="M24,51.48a14,14,0,0,1,6.83,1.29A14.18,14.18,0,0,1,36.36,72"/><path class="cls-3" d="M36.42,72.07a13.15,13.15,0,0,1,12-7.06"/><path class="cls-3" d="M23.88,65.46A14.18,14.18,0,0,1,48.43,65"/><path class="cls-3" d="M24.28,65.68a14.23,14.23,0,0,1,12.08,6.43"/><path class="cls-3" d="M35.91,43.72A14.18,14.18,0,0,1,24.28,65.61"/><path class="cls-3" d="M36.67,72.47A14.19,14.19,0,0,1,48,51"/><path class="cls-3" d="M24,51.48a14,14,0,0,0,11.63-7.39"/><path class="cls-3" d="M24,51.56a13.27,13.27,0,0,0,4.75,4.93A14.18,14.18,0,0,0,48,51"/><path class="cls-3" d="M48.09,51a13.55,13.55,0,0,0,.65,14.15"/><path class="cls-3" d="M35.9,43.72a14.18,14.18,0,0,0,13.48,21"/><path class="cls-3" d="M36,43.68A14.19,14.19,0,0,0,48.6,50.91"/><circle class="cls-6" cx="110.6" cy="99.85" r="14.18"/><path class="cls-3" d="M98.17,93a13.31,13.31,0,0,1,0,13.7"/><path class="cls-3" d="M98.17,93A14,14,0,0,1,105,94.32a14.18,14.18,0,0,1,5.55,19.27"/><path class="cls-3" d="M110.61,113.62a13.56,13.56,0,0,1,12.38-6.9"/><path class="cls-3" d="M98.06,107a14.17,14.17,0,0,1,24.55-.46"/><path class="cls-3" d="M98.46,107.24a14.19,14.19,0,0,1,12.08,6.42"/><path class="cls-3" d="M110.09,85.28a14.17,14.17,0,0,1-11.63,21.88"/><path class="cls-3" d="M110.86,114a14.18,14.18,0,0,1,11.35-21.47"/><path class="cls-3" d="M98.17,93a14,14,0,0,0,11.63-7.39"/><path class="cls-3" d="M98.19,93.12a13.35,13.35,0,0,0,4.75,4.93,14.19,14.19,0,0,0,19.27-5.55"/><path class="cls-3" d="M122.27,92.53a13.55,13.55,0,0,0,.65,14.15"/><path class="cls-3" d="M110.09,85.27a14.18,14.18,0,0,0,5.54,19.27c2.51,1.39,4.69,2.38,7.36,2.18"/><path class="cls-3" d="M110.16,85.23a14.19,14.19,0,0,0,12.62,7.23"/><circle class="cls-6" cx="135.94" cy="114.25" r="14.18"/><path class="cls-3" d="M123.51,107.43a13.31,13.31,0,0,1,0,13.7"/><path class="cls-3" d="M123.51,107.43a14,14,0,0,1,6.83,1.29A14.18,14.18,0,0,1,135.88,128"/><path class="cls-3" d="M135.94,128a13.58,13.58,0,0,1,12.39-6.9"/><path class="cls-3" d="M123.4,121.42A14.18,14.18,0,0,1,148,121"/><path class="cls-3" d="M123.8,121.64a14.19,14.19,0,0,1,12.08,6.42"/><path class="cls-3" d="M135.43,99.67a14.18,14.18,0,0,1-11.63,21.89"/><path class="cls-3" d="M136.19,128.42A14.19,14.19,0,0,1,147.55,107"/><path class="cls-3" d="M123.51,107.43A14,14,0,0,0,135.14,100"/><path class="cls-3" d="M123.53,107.52a13.25,13.25,0,0,0,4.75,4.92,14.18,14.18,0,0,0,19.27-5.54"/><path class="cls-3" d="M147.61,106.93a13.55,13.55,0,0,0,.65,14.15"/><path class="cls-3" d="M135.42,99.67A14.19,14.19,0,0,0,141,118.94c2.51,1.39,4.69,2.38,7.36,2.18"/><path class="cls-3" d="M135.5,99.63a14.19,14.19,0,0,0,12.62,7.23"/><circle class="cls-6" cx="60.79" cy="100.39" r="14.18"/><path class="cls-3" d="M48.55,107.55a13.32,13.32,0,0,1,11.74,7.06"/><path class="cls-3" d="M48.55,107.55a14.05,14.05,0,0,1,4.62-5.2,14.18,14.18,0,0,1,19.38,5.15"/><path class="cls-3" d="M72.61,107.46a13.57,13.57,0,0,1,.44-14.17"/><path class="cls-3" d="M60.49,114.83a14.18,14.18,0,0,1,5.15-19.37,14,14,0,0,1,7.08-1.92"/><path class="cls-3" d="M60.89,114.6a14.2,14.2,0,0,1,11.72-7.06"/><path class="cls-3" d="M48,93.34a14.17,14.17,0,0,1,12.79,21.22"/><path class="cls-3" d="M73.08,107.46A14.19,14.19,0,0,1,60.5,86.68"/><path class="cls-3" d="M48.55,107.55a14,14,0,0,0-.36-13.78"/><path class="cls-3" d="M48.64,107.57A13.29,13.29,0,0,0,55.31,106a14.17,14.17,0,0,0,5.14-19.37"/><path class="cls-3" d="M60.51,86.62A13.56,13.56,0,0,0,73,93.33"/><path class="cls-3" d="M48,93.34A14.18,14.18,0,0,0,67.4,98.49c2.48-1.45,4.45-2.81,5.65-5.2"/><path class="cls-3" d="M48,93.25a14.19,14.19,0,0,0,12.68-7.11"/><circle class="cls-6" cx="36.08" cy="114.73" r="14.18"/><path class="cls-3" d="M23.85,121.89A13.28,13.28,0,0,1,35.58,129"/><path class="cls-3" d="M23.85,121.89a14,14,0,0,1,4.62-5.2,14.16,14.16,0,0,1,19.37,5.15"/><path class="cls-3" d="M47.9,121.8a13.59,13.59,0,0,1,.44-14.17"/><path class="cls-3" d="M35.79,129.17A14.18,14.18,0,0,1,48,107.87"/><path class="cls-3" d="M36.18,128.94a14.18,14.18,0,0,1,11.73-7.06"/><path class="cls-3" d="M23.32,107.67a14.19,14.19,0,0,1,12.8,21.23"/><path class="cls-3" d="M48.37,121.79A14.17,14.17,0,0,1,35.8,101"/><path class="cls-3" d="M23.85,121.89a14,14,0,0,0-.36-13.78"/><path class="cls-3" d="M23.93,121.91a13.24,13.24,0,0,0,6.67-1.54A14.18,14.18,0,0,0,35.75,101"/><path class="cls-3" d="M35.81,101a13.56,13.56,0,0,0,12.47,6.71"/><path class="cls-3" d="M23.32,107.68a14.18,14.18,0,0,0,24.93-.77"/><path class="cls-3" d="M23.32,107.59A14.16,14.16,0,0,0,36,100.48"/><circle class="cls-6" cx="110.2" cy="71.23" r="14.18"/><path class="cls-3" d="M98,78.39a13.28,13.28,0,0,1,11.73,7.06"/><path class="cls-3" d="M98,78.39a14,14,0,0,1,4.62-5.2A14.16,14.16,0,0,1,122,78.34"/><path class="cls-3" d="M122,78.3a13.57,13.57,0,0,1,.44-14.17"/><path class="cls-3" d="M109.91,85.67a14.17,14.17,0,0,1,12.23-21.29"/><path class="cls-3" d="M110.3,85.44A14.14,14.14,0,0,1,122,78.38"/><path class="cls-3" d="M97.44,64.17a14.19,14.19,0,0,1,12.8,21.23"/><path class="cls-3" d="M122.49,78.29a14.18,14.18,0,0,1-12.58-20.77"/><path class="cls-3" d="M98,78.39a14,14,0,0,0-.36-13.78"/><path class="cls-3" d="M98.05,78.41a13.26,13.26,0,0,0,6.67-1.54,14.18,14.18,0,0,0,5.15-19.38"/><path class="cls-3" d="M109.93,57.46a13.56,13.56,0,0,0,12.47,6.71"/><path class="cls-3" d="M97.44,64.18a14.17,14.17,0,0,0,19.37,5.14c2.48-1.44,4.46-2.8,5.65-5.19"/><path class="cls-3" d="M97.44,64.09A14.16,14.16,0,0,0,110.12,57"/><circle class="cls-6" cx="135.52" cy="57.15" r="14.18"/><path class="cls-3" d="M123.29,64.31A13.32,13.32,0,0,1,135,71.37"/><path class="cls-3" d="M123.29,64.31a14,14,0,0,1,4.62-5.2,14.17,14.17,0,0,1,19.37,5.15"/><path class="cls-3" d="M147.34,64.22a13.59,13.59,0,0,1,.44-14.17"/><path class="cls-3" d="M135.23,71.59A14.18,14.18,0,0,1,147.46,50.3"/><path class="cls-3" d="M135.62,71.36a14.24,14.24,0,0,1,11.73-7.06"/><path class="cls-3" d="M122.76,50.1a14.18,14.18,0,0,1,12.8,21.23"/><path class="cls-3" d="M147.82,64.22a14.18,14.18,0,0,1-12.58-20.78"/><path class="cls-3" d="M123.29,64.31a14,14,0,0,0-.36-13.78"/><path class="cls-3" d="M123.37,64.33A13.24,13.24,0,0,0,130,62.79a14.17,14.17,0,0,0,5.15-19.37"/><path class="cls-3" d="M135.25,43.38a13.54,13.54,0,0,0,12.47,6.71"/><path class="cls-3" d="M122.76,50.1a14.17,14.17,0,0,0,19.37,5.15c2.49-1.44,4.46-2.81,5.65-5.2"/><path class="cls-3" d="M122.76,50a14.21,14.21,0,0,0,12.69-7.1"/></g></g></g></svg>