<svg xmlns="http://www.w3.org/2000/svg" viewBox="0 0 172.02 172.02"><defs><style>.cls-1,.cls-4{fill:#231f20;}.cls-1{stroke:#231f20;stroke-width:3px;}.cls-1,.cls-2,.cls-4{stroke-miterlimit:10;}.cls-2,.cls-3{fill:none;}.cls-2,.cls-3,.cls-4{stroke:#fff;}.cls-2{stroke-width:0.92px;}.cls-3{stroke-linejoin:round;stroke-width:0.41px;}.cls-4{stroke-width:1.66px;}</style></defs><title>sacredgeo5</title><g id="Layer_2" data-name="Layer 2"><g id="draft_4" data-name="draft 4"><g id="Layer_3" data-name="Layer 3"><circle class="cls-1" cx="86.01" cy="86.01" r="84.51"/><circle class="cls-2" cx="86.01" cy="86.01" r="79.91"/><path class="cls-3" d="M102.86,37.29h-.18a19.12,19.12,0,1,0,16,8.67A19.09,19.09,0,0,1,102.86,37.29Z"/><path class="cls-3" d="M102.86,37.29A19.09,19.09,0,0,0,118.69,46,19.09,19.09,0,0,0,102.86,37.29Z"/><path class="cls-3" d="M68.33,37.57h.18a19.12,19.12,0,1,1-15.68,9.24A19.07,19.07,0,0,0,68.33,37.57Z"/><path class="cls-3" d="M68.33,37.57a19.07,19.07,0,0,1-15.5,9.24A19.12,19.12,0,0,1,68.33,37.57Z"/><path class="cls-3" d="M68.23,133.31h.17a19.11,19.11,0,1,0-15.91-8.83A19.1,19.1,0,0,1,68.23,133.31Z"/><path class="cls-3" d="M68.23,133.31a19.1,19.1,0,0,0-15.74-8.83A19.08,19.08,0,0,0,68.23,133.31Z"/><path class="cls-3" d="M102.75,133.39h-.17a19.1,19.1,0,1,1,15.78-9.08A19.1,19.1,0,0,0,102.75,133.39Z"/><path class="cls-3" d="M102.75,133.39a19.1,19.1,0,0,1,15.61-9.07A19.1,19.1,0,0,1,102.75,133.39Z"/><path class="cls-3" d="M135.9,76.55a1.09,1.09,0,0,0-.08-.15,19.12,19.12,0,1,0-.18,18.2A19.12,19.12,0,0,1,135.9,76.55Z"/><path class="cls-3" d="M135.9,76.55a19.12,19.12,0,0,0-.26,18A19.07,19.07,0,0,0,135.9,76.55Z"/><path class="cls-3" d="M35.87,76.42l.09-.16a19.11,19.11,0,1,1-.23,18.21A19.09,19.09,0,0,0,35.87,76.42Z"/><path class="cls-3" d="M35.87,76.42a19.09,19.09,0,0,1-.14,18A19.12,19.12,0,0,1,35.87,76.42Z"/><circle class="cls-4" cx="85.82" cy="47.4" r="19.12"/><path class="cls-3" d="M85.75,28.28c-3.31,5.72-9.11,8.91-16.19,8.91"/><path class="cls-3" d="M85.75,28.28c1.47,2.71,2.93,5.61,2.93,8.91A19.12,19.12,0,0,1,69.56,56.31"/><path class="cls-3" d="M69.56,56.4c7.26,0,13,4.15,16.24,10.11"/><path class="cls-3" d="M69.17,37.28A19.12,19.12,0,0,1,85.73,66"/><path class="cls-3" d="M69.17,37.9a19.14,19.14,0,0,1,.31,18.46"/><path class="cls-3" d="M102.68,37.29a19.12,19.12,0,0,1-33.42.56"/><path class="cls-3" d="M69.26,57A19.12,19.12,0,0,1,102,56.35"/><path class="cls-3" d="M85.75,28.28a18.88,18.88,0,0,0,16.32,8.91"/><path class="cls-3" d="M85.66,28.37A17.89,17.89,0,0,0,83,37.19a19.12,19.12,0,0,0,19.12,19.12"/><path class="cls-3" d="M102.07,56.4a18.27,18.27,0,0,0-16.27,10"/><path class="cls-3" d="M102.68,37.28A19.12,19.12,0,0,0,83.56,56.4c0,3.88.28,7.11,2.26,10.12"/><path class="cls-3" d="M102.79,37.35a19.11,19.11,0,0,0-.3,19.61"/><circle class="cls-4" cx="85.82" cy="86.01" r="19.12"/><path class="cls-3" d="M85.75,66.89c-3.31,5.72-9.11,8.91-16.19,8.91"/><path class="cls-3" d="M85.75,66.89c1.47,2.71,2.93,5.61,2.93,8.91A19.12,19.12,0,0,1,69.56,94.92"/><path class="cls-3" d="M69.56,95c7.26,0,13,4.15,16.24,10.11"/><path class="cls-3" d="M69.17,75.89a19.12,19.12,0,0,1,16.56,28.68"/><path class="cls-3" d="M69.17,76.51A19.13,19.13,0,0,1,69.48,95"/><path class="cls-3" d="M102.68,75.9a19.12,19.12,0,0,1-33.42.56"/><path class="cls-3" d="M69.26,95.57A19.12,19.12,0,0,1,102,95"/><path class="cls-3" d="M85.75,66.89a18.88,18.88,0,0,0,16.32,8.91"/><path class="cls-3" d="M85.66,67A18,18,0,0,0,83,75.8a19.12,19.12,0,0,0,19.12,19.12"/><path class="cls-3" d="M102.07,95A18.27,18.27,0,0,0,85.8,105"/><path class="cls-3" d="M102.68,75.89A19.12,19.12,0,0,0,83.56,95c0,3.87.19,6.55,2.17,9.56"/><path class="cls-3" d="M102.79,76a19.09,19.09,0,0,0-.3,19.6"/><circle class="cls-4" cx="52.66" cy="104.75" r="19.12"/><path class="cls-3" d="M52.59,85.63c-3.31,5.72-9.11,8.91-16.18,8.91"/><path class="cls-3" d="M52.59,85.63c1.47,2.71,2.93,5.61,2.93,8.91a19.12,19.12,0,0,1-19.11,19.12"/><path class="cls-3" d="M36.41,113.75c7.25,0,13,4.15,16.23,10.11"/><path class="cls-3" d="M36,94.63a19.12,19.12,0,0,1,16.56,28.68"/><path class="cls-3" d="M36,95.25a19.13,19.13,0,0,1,.31,18.45"/><path class="cls-3" d="M69.52,94.64a19.12,19.12,0,0,1-33.42.56"/><path class="cls-3" d="M36.1,114.31a19.12,19.12,0,0,1,32.75-.61"/><path class="cls-3" d="M52.59,85.63a18.89,18.89,0,0,0,16.32,8.91"/><path class="cls-3" d="M52.5,85.72a18,18,0,0,0-2.71,8.82,19.12,19.12,0,0,0,19.12,19.12"/><path class="cls-3" d="M68.91,113.75a18.27,18.27,0,0,0-16.27,10"/><path class="cls-3" d="M69.52,94.63a19.11,19.11,0,0,0-19.11,19.12c0,3.88.25,7.1,2.23,10.11"/><path class="cls-3" d="M69.75,94.27a19.17,19.17,0,0,0-.3,19.61"/><circle class="cls-4" cx="85.82" cy="124.62" r="19.12"/><path class="cls-3" d="M85.75,105.5c-3.31,5.71-9.11,8.91-16.19,8.91"/><path class="cls-3" d="M85.75,105.5c1.47,2.71,2.93,5.61,2.93,8.91a19.12,19.12,0,0,1-19.12,19.12"/><path class="cls-3" d="M69.56,133.62c7.26,0,13,4.14,16.24,10.1"/><path class="cls-3" d="M69.17,114.5a19.12,19.12,0,0,1,16.56,28.68"/><path class="cls-3" d="M69.17,115.11a19.14,19.14,0,0,1,.31,18.46"/><path class="cls-3" d="M102.68,114.51a19.12,19.12,0,0,1-33.42.55"/><path class="cls-3" d="M69.26,134.18a19.13,19.13,0,0,1,32.75-.62"/><path class="cls-3" d="M85.75,105.5a18.88,18.88,0,0,0,16.32,8.91"/><path class="cls-3" d="M85.66,105.58A18,18,0,0,0,83,114.41a19.12,19.12,0,0,0,19.12,19.12"/><path class="cls-3" d="M102.07,133.62a18.26,18.26,0,0,0-16.27,10"/><path class="cls-3" d="M102.68,114.5a19.12,19.12,0,0,0-19.12,19.12c0,3.87.26,7.09,2.24,10.1"/><path class="cls-3" d="M102.79,114.56a19.11,19.11,0,0,0-.3,19.61"/><circle class="cls-4" cx="119.05" cy="65.78" r="19.12"/><path class="cls-3" d="M119,46.66c-3.3,5.71-9.1,8.91-16.18,8.91"/><path class="cls-3" d="M119,46.66c1.47,2.71,2.94,5.61,2.94,8.91A19.12,19.12,0,0,1,102.8,74.69"/><path class="cls-3" d="M102.8,74.78c7.26,0,13,4.14,16.23,10.1"/><path class="cls-3" d="M102.41,55.66A19.12,19.12,0,0,1,119,84.34"/><path class="cls-3" d="M102.41,56.27a19.18,19.18,0,0,1,.3,18.46"/><path class="cls-3" d="M135.92,55.67a19.13,19.13,0,0,1-33.43.56"/><path class="cls-3" d="M102.49,75.34a19.13,19.13,0,0,1,32.75-.62"/><path class="cls-3" d="M119,46.66a18.89,18.89,0,0,0,16.32,8.91"/><path class="cls-3" d="M118.9,46.74a18,18,0,0,0-2.72,8.83A19.12,19.12,0,0,0,135.3,74.69"/><path class="cls-3" d="M135.3,74.78a18.27,18.27,0,0,0-16.27,10"/><path class="cls-3" d="M135.92,55.66A19.12,19.12,0,0,0,116.8,74.78c0,3.87.25,7.09,2.23,10.1"/><path class="cls-3" d="M136,55.72a19.17,19.17,0,0,0-.3,19.61"/><circle class="cls-4" cx="119.36" cy="104.83" r="19.12"/><path class="cls-3" d="M119.29,85.71c-3.3,5.72-9.1,8.91-16.18,8.91"/><path class="cls-3" d="M119.29,85.71c1.47,2.71,2.94,5.61,2.94,8.91a19.12,19.12,0,0,1-19.12,19.12"/><path class="cls-3" d="M103.11,113.83c7.26,0,13,4.15,16.23,10.11"/><path class="cls-3" d="M102.72,94.71a19.12,19.12,0,0,1,16.56,28.68"/><path class="cls-3" d="M102.72,95.33a19.16,19.16,0,0,1,.3,18.45"/><path class="cls-3" d="M136.23,94.72a19.12,19.12,0,0,1-33.42.56"/><path class="cls-3" d="M102.8,114.39a19.12,19.12,0,0,1,32.75-.61"/><path class="cls-3" d="M119.29,85.71a18.89,18.89,0,0,0,16.32,8.91"/><path class="cls-3" d="M119.21,85.8a17.9,17.9,0,0,0-2.72,8.82,19.12,19.12,0,0,0,19.12,19.12"/><path class="cls-3" d="M135.61,113.83c-7.26,0-13,4-16.27,10"/><path class="cls-3" d="M136.23,94.71a19.12,19.12,0,0,0-19.12,19.12c0,3.87.27,7.11,2.25,10.12"/><path class="cls-3" d="M136.33,94.78a19.15,19.15,0,0,0-.3,19.6"/><circle class="cls-4" cx="52.73" cy="66.79" r="19.12"/><path class="cls-3" d="M52.67,47.67c-3.31,5.71-9.11,8.91-16.19,8.91"/><path class="cls-3" d="M52.67,47.67c1.47,2.71,2.93,5.61,2.93,8.91A19.12,19.12,0,0,1,36.48,75.7"/><path class="cls-3" d="M36.48,75.79c7.26,0,13,4.15,16.24,10.11"/><path class="cls-3" d="M36.09,56.67A19.12,19.12,0,0,1,52.65,85.35"/><path class="cls-3" d="M36.09,57.28a19.14,19.14,0,0,1,.31,18.46"/><path class="cls-3" d="M69.6,56.68a19.12,19.12,0,0,1-33.42.56"/><path class="cls-3" d="M36.17,76.35a19.13,19.13,0,0,1,32.76-.61"/><path class="cls-3" d="M52.67,47.67A18.88,18.88,0,0,0,69,56.58"/><path class="cls-3" d="M52.58,47.75a18,18,0,0,0-2.71,8.83A19.12,19.12,0,0,0,69,75.7"/><path class="cls-3" d="M69,75.79a18.27,18.27,0,0,0-16.27,10"/><path class="cls-3" d="M69.6,56.67A19.12,19.12,0,0,0,50.48,75.79c0,3.87.28,7.11,2.25,10.12"/><path class="cls-3" d="M69.55,55.72A19,19,0,0,0,66.7,65.78a20.54,20.54,0,0,0,2.29,10"/></g></g></g></svg>