<svg xmlns="http://www.w3.org/2000/svg" viewBox="0 0 129.44 144.02"><defs><style>.cls-1,.cls-2,.cls-3{fill:none;stroke-linejoin:round;}.cls-1,.cls-2,.cls-3,.cls-4{stroke:#231f20;}.cls-1{stroke-width:0.31px;}.cls-2{stroke-width:0.31px;}.cls-3{stroke-width:0.31px;}.cls-4{fill:#fff;stroke-miterlimit:10;stroke-width:1.23px;}</style></defs><title>Asset 9</title><g id="Layer_2" data-name="Layer 2"><g id="draft_3" data-name="draft 3"><g id="Layer_3" data-name="Layer 3"><path class="cls-1" d="M90.51,35.78A14.18,14.18,0,1,1,76.33,21.46,14.18,14.18,0,0,1,90.51,35.78Z"/><path class="cls-1" d="M66.2,36A14.18,14.18,0,1,1,52,21.67,14.17,14.17,0,0,1,66.2,36Z"/><path class="cls-1" d="M90.9,22A14.18,14.18,0,1,1,76.73,7.63,14.18,14.18,0,0,1,90.9,22Z"/><path class="cls-2" d="M66.22,21.84A14.32,14.32,0,1,1,51.9,7.37,14.32,14.32,0,0,1,66.22,21.84Z"/><path class="cls-3" d="M41.56,36.38A14.43,14.43,0,1,1,27.14,21.81,14.42,14.42,0,0,1,41.56,36.38Z"/><path class="cls-3" d="M42,65.2A14.43,14.43,0,1,1,27.6,50.63,14.43,14.43,0,0,1,42,65.2Z"/><path class="cls-3" d="M42,79.31A14.43,14.43,0,1,1,27.6,64.74,14.43,14.43,0,0,1,42,79.31Z"/><path class="cls-3" d="M29.29,72.54A14.43,14.43,0,1,1,14.64,58.18,14.43,14.43,0,0,1,29.29,72.54Z"/><path class="cls-3" d="M29.29,86.57A14.43,14.43,0,1,1,14.64,72.22,14.43,14.43,0,0,1,29.29,86.57Z"/><path class="cls-3" d="M29.29,57.72A14.43,14.43,0,1,1,14.64,43.37,14.43,14.43,0,0,1,29.29,57.72Z"/><path class="cls-3" d="M86.54,65.2A14.43,14.43,0,1,0,101,50.63,14.43,14.43,0,0,0,86.54,65.2Z"/><path class="cls-3" d="M86.54,79.31A14.43,14.43,0,1,0,101,64.74,14.43,14.43,0,0,0,86.54,79.31Z"/><path class="cls-3" d="M99.25,72a14.43,14.43,0,1,0,14.64-14.35A14.43,14.43,0,0,0,99.25,72Z"/><path class="cls-3" d="M99.28,86.57a14.43,14.43,0,1,0,14.64-14.35A14.43,14.43,0,0,0,99.28,86.57Z"/><path class="cls-3" d="M99.28,57.72a14.43,14.43,0,1,0,14.64-14.35A14.43,14.43,0,0,0,99.28,57.72Z"/><path class="cls-3" d="M115.86,36.09a14.43,14.43,0,1,1-14.43-14.57A14.43,14.43,0,0,1,115.86,36.09Z"/><path class="cls-1" d="M103.09,29A14.18,14.18,0,1,1,88.91,14.63,14.18,14.18,0,0,1,103.09,29Z"/><path class="cls-1" d="M103.09,43.77A14.18,14.18,0,1,1,88.91,29.45,14.17,14.17,0,0,1,103.09,43.77Z"/><path class="cls-1" d="M53.75,29A14.18,14.18,0,1,1,39.57,14.63,14.18,14.18,0,0,1,53.75,29Z"/><path class="cls-1" d="M53.75,42.94A14.18,14.18,0,1,1,39.57,28.62,14.18,14.18,0,0,1,53.75,42.94Z"/><path class="cls-1" d="M38.06,108a14.18,14.18,0,1,1,14.17,14.32A14.18,14.18,0,0,1,38.06,108Z"/><path class="cls-1" d="M63,107.19a14.18,14.18,0,1,1,14.18,14.32A14.18,14.18,0,0,1,63,107.19Z"/><path class="cls-1" d="M37.67,121.84a14.18,14.18,0,1,1,14.17,14.32A14.17,14.17,0,0,1,37.67,121.84Z"/><path class="cls-2" d="M62.35,122a14.32,14.32,0,1,1,14.31,14.47A14.31,14.31,0,0,1,62.35,122Z"/><path class="cls-3" d="M87.21,107.56a14.43,14.43,0,1,1,14.42,14.58A14.42,14.42,0,0,1,87.21,107.56Z"/><path class="cls-3" d="M12.71,107.7a14.43,14.43,0,1,1,14.43,14.57A14.43,14.43,0,0,1,12.71,107.7Z"/><path class="cls-1" d="M25.48,114.84a14.18,14.18,0,1,1,14.18,14.32A14.18,14.18,0,0,1,25.48,114.84Z"/><path class="cls-1" d="M25.48,100.35a14.18,14.18,0,1,1,14.18,14.32A14.18,14.18,0,0,1,25.48,100.35Z"/><path class="cls-1" d="M75.05,114.6a14.18,14.18,0,1,1,14.18,14.32A14.17,14.17,0,0,1,75.05,114.6Z"/><path class="cls-1" d="M74.82,100.59A14.18,14.18,0,1,1,89,114.91,14.18,14.18,0,0,1,74.82,100.59Z"/><circle class="cls-4" cx="64.28" cy="14.79" r="14.18"/><circle class="cls-4" cx="64.28" cy="43.35" r="14.18"/><path class="cls-1" d="M64.23,29.18a13.29,13.29,0,0,1-12,6.6"/><path class="cls-1" d="M64.23,29.18a14,14,0,0,1,2.18,6.6A14.18,14.18,0,0,1,52.23,50"/><path class="cls-1" d="M52.23,50a13.57,13.57,0,0,1,12,7.49"/><path class="cls-1" d="M51.94,35.85A14.18,14.18,0,0,1,64.22,57.12"/><path class="cls-1" d="M51.94,36.31A14.15,14.15,0,0,1,52.17,50"/><path class="cls-1" d="M76.79,35.86A14.18,14.18,0,0,1,52,36.27"/><path class="cls-1" d="M52,50.44A14.17,14.17,0,0,1,76.29,50"/><path class="cls-1" d="M64.23,29.18a14,14,0,0,0,12.1,6.6"/><path class="cls-1" d="M64.17,29.24a13.3,13.3,0,0,0-2,6.54A14.17,14.17,0,0,0,76.33,50"/><path class="cls-1" d="M76.33,50a13.55,13.55,0,0,0-12.06,7.42"/><path class="cls-1" d="M76.79,35.85A14.18,14.18,0,0,0,62.61,50c0,2.87.19,5.26,1.66,7.49"/><path class="cls-1" d="M76.87,35.9a14.16,14.16,0,0,0-.22,14.54"/><path class="cls-1" d="M64.23.61a13.3,13.3,0,0,1-12,6.61"/><path class="cls-1" d="M64.23.61a14,14,0,0,1,2.18,6.61A14.17,14.17,0,0,1,52.23,21.39"/><path class="cls-1" d="M52.23,21.46a13.58,13.58,0,0,1,12,7.5"/><path class="cls-1" d="M51.94,7.29A14.17,14.17,0,0,1,64.22,28.55"/><path class="cls-1" d="M51.94,7.74a14.17,14.17,0,0,1,.23,13.69"/><path class="cls-1" d="M76.79,7.29a14.18,14.18,0,0,1-12.51,7.5A14.17,14.17,0,0,1,52,7.71"/><path class="cls-1" d="M52,21.88a14.18,14.18,0,0,1,24.28-.46"/><path class="cls-1" d="M64.23.61a14,14,0,0,0,12.1,6.61"/><path class="cls-1" d="M64.17.68a13.3,13.3,0,0,0-2,6.54A14.16,14.16,0,0,0,76.33,21.39"/><path class="cls-1" d="M76.33,21.46a13.33,13.33,0,0,0-12.11,7.09"/><path class="cls-1" d="M76.79,7.29A14.18,14.18,0,0,0,62.61,21.46c0,2.88.19,5.19,1.66,7.42"/><path class="cls-1" d="M76.87,7.34a14.15,14.15,0,0,0-.22,14.53"/><circle class="cls-4" cx="64.28" cy="71.98" r="14.18"/><path class="cls-1" d="M64.23,57.8a13.3,13.3,0,0,1-12,6.61"/><path class="cls-1" d="M64.23,57.8a14,14,0,0,1,2.18,6.61A14.18,14.18,0,0,1,52.23,78.59"/><path class="cls-1" d="M52.23,78.65a13.58,13.58,0,0,1,12,7.5"/><path class="cls-1" d="M51.94,64.48A14.17,14.17,0,0,1,64.22,85.74"/><path class="cls-1" d="M51.94,64.93a14.17,14.17,0,0,1,.23,13.69"/><path class="cls-1" d="M76.79,64.48A14.18,14.18,0,0,1,52,64.9"/><path class="cls-1" d="M52,79.07a14.18,14.18,0,0,1,24.28-.46"/><path class="cls-1" d="M64.23,57.8a14,14,0,0,0,12.1,6.61"/><path class="cls-1" d="M64.17,57.87a13.3,13.3,0,0,0-2,6.54A14.17,14.17,0,0,0,76.33,78.59"/><path class="cls-1" d="M76.33,78.65a13.55,13.55,0,0,0-12.06,7.42"/><path class="cls-1" d="M76.79,64.48A14.18,14.18,0,0,0,62.61,78.65c0,2.88.19,5.26,1.66,7.5"/><path class="cls-1" d="M76.87,64.53a14.15,14.15,0,0,0-.22,14.53"/><circle class="cls-4" cx="64.28" cy="100.61" r="14.18"/><path class="cls-1" d="M64.23,86.43a13.3,13.3,0,0,1-12,6.61"/><path class="cls-1" d="M64.23,86.43A14,14,0,0,1,66.41,93a14.18,14.18,0,0,1-14.18,14.17"/><path class="cls-1" d="M52.23,107.28a13.57,13.57,0,0,1,12,7.49"/><path class="cls-1" d="M51.94,93.1a14.18,14.18,0,0,1,12.28,21.27"/><path class="cls-1" d="M51.94,93.56a14.15,14.15,0,0,1,.23,13.68"/><path class="cls-1" d="M76.79,93.11A14.17,14.17,0,0,1,52,93.52"/><path class="cls-1" d="M52,107.69a14.18,14.18,0,0,1,24.28-.45"/><path class="cls-1" d="M64.23,86.43A14,14,0,0,0,76.33,93"/><path class="cls-1" d="M64.17,86.49a13.34,13.34,0,0,0-2,6.55,14.17,14.17,0,0,0,14.17,14.17"/><path class="cls-1" d="M76.33,107.28a13.55,13.55,0,0,0-12.06,7.42"/><path class="cls-1" d="M76.79,93.1a14.18,14.18,0,0,0-14.18,14.18c0,2.87.19,5.26,1.66,7.49"/><path class="cls-1" d="M76.87,93.15a14.16,14.16,0,0,0-.22,14.54"/><circle class="cls-4" cx="64.28" cy="129.23" r="14.18"/><path class="cls-1" d="M64.23,115.06a13.31,13.31,0,0,1-12,6.6"/><path class="cls-1" d="M64.23,115.06a14,14,0,0,1,2.18,6.6,14.18,14.18,0,0,1-14.18,14.18"/><path class="cls-1" d="M52.23,135.91a13.57,13.57,0,0,1,12,7.49"/><path class="cls-1" d="M51.94,121.73a14.18,14.18,0,0,1,14.18,14.18,14,14,0,0,1-1.9,7.08"/><path class="cls-1" d="M51.94,122.19a14.15,14.15,0,0,1,.23,13.68"/><path class="cls-1" d="M76.79,121.74a14.18,14.18,0,0,1-24.78.41"/><path class="cls-1" d="M52,136.32a14.17,14.17,0,0,1,24.28-.45"/><path class="cls-1" d="M64.23,115.06a14,14,0,0,0,12.1,6.6"/><path class="cls-1" d="M64.17,115.12a13.3,13.3,0,0,0-2,6.54,14.17,14.17,0,0,0,14.17,14.18"/><path class="cls-1" d="M76.33,135.91a13.55,13.55,0,0,0-12.06,7.41"/><path class="cls-1" d="M76.79,121.73a14.18,14.18,0,0,0-14.18,14.18c0,2.87.19,5.26,1.66,7.49"/><path class="cls-1" d="M76.87,121.78a14.16,14.16,0,0,0-.22,14.54"/><circle class="cls-4" cx="40" cy="57.74" r="14.18"/><path class="cls-1" d="M27.57,50.93a13.27,13.27,0,0,1,0,13.69"/><path class="cls-1" d="M27.57,50.93a13.82,13.82,0,0,1,6.84,1.29A14.17,14.17,0,0,1,40,71.48"/><path class="cls-1" d="M40,71.52a13.59,13.59,0,0,1,12.38-6.91"/><path class="cls-1" d="M27.47,64.91A14.18,14.18,0,0,1,52,64.46"/><path class="cls-1" d="M27.86,65.13A14.17,14.17,0,0,1,40,71.56"/><path class="cls-1" d="M39.5,43.17A14.19,14.19,0,0,1,27.86,65.06"/><path class="cls-1" d="M40.26,71.92A14.18,14.18,0,0,1,51.62,50.45"/><path class="cls-1" d="M27.57,50.93a14,14,0,0,0,11.64-7.4"/><path class="cls-1" d="M27.6,51a13.35,13.35,0,0,0,4.75,4.93,14.17,14.17,0,0,0,19.27-5.55"/><path class="cls-1" d="M51.68,50.43a13.51,13.51,0,0,0,.65,14.14"/><path class="cls-1" d="M39.49,43.17A14.17,14.17,0,0,0,45,62.43c2.51,1.39,4.69,2.38,7.35,2.18"/><path class="cls-1" d="M39.57,43.12a14.19,14.19,0,0,0,12.62,7.23"/><circle class="cls-4" cx="15.12" cy="44.3" r="14.18"/><path class="cls-1" d="M2.69,37.48a13.29,13.29,0,0,1,0,13.7"/><path class="cls-1" d="M2.69,37.48a14,14,0,0,1,6.84,1.29A14.18,14.18,0,0,1,15.07,58"/><path class="cls-1" d="M15.13,58.07a13.15,13.15,0,0,1,12-7.06"/><path class="cls-1" d="M2.59,51.47A14.18,14.18,0,0,1,27.14,51"/><path class="cls-1" d="M3,51.69a14.11,14.11,0,0,1,7.07,1.77,14,14,0,0,1,5,4.65"/><path class="cls-1" d="M14.62,29.73A14.18,14.18,0,0,1,3,51.61"/><path class="cls-1" d="M15.38,58.47A14.18,14.18,0,0,1,26.74,37"/><path class="cls-1" d="M2.69,37.48a14,14,0,0,0,11.64-7.39"/><path class="cls-1" d="M2.72,37.57a13.25,13.25,0,0,0,4.75,4.92A14.18,14.18,0,0,0,26.74,37"/><path class="cls-1" d="M26.8,37a13.55,13.55,0,0,0,.65,14.15"/><path class="cls-1" d="M14.61,29.72a14.18,14.18,0,0,0,13.48,21"/><path class="cls-1" d="M14.69,29.68a14.19,14.19,0,0,0,12.62,7.23"/><circle class="cls-4" cx="89.31" cy="85.85" r="14.18"/><path class="cls-1" d="M76.88,79a13.31,13.31,0,0,1,0,13.7"/><path class="cls-1" d="M76.88,79a13.93,13.93,0,0,1,6.83,1.3,14.18,14.18,0,0,1,5.55,19.26"/><path class="cls-1" d="M89.32,99.62a13.56,13.56,0,0,1,12.38-6.9"/><path class="cls-1" d="M76.77,93a14.17,14.17,0,0,1,24.55-.46"/><path class="cls-1" d="M77.17,93.24a14.19,14.19,0,0,1,12.08,6.42"/><path class="cls-1" d="M88.8,71.28A14.17,14.17,0,0,1,77.17,93.16"/><path class="cls-1" d="M89.57,100a14.18,14.18,0,0,1,11.35-21.47"/><path class="cls-1" d="M76.88,79a14,14,0,0,0,11.63-7.39"/><path class="cls-1" d="M76.9,79.12a13.35,13.35,0,0,0,4.75,4.93,14.18,14.18,0,0,0,19.27-5.55"/><path class="cls-1" d="M101,78.54a13.54,13.54,0,0,0,.65,14.14"/><path class="cls-1" d="M88.8,71.28a14.17,14.17,0,0,0,5.54,19.26c2.51,1.39,4.69,2.38,7.36,2.18"/><path class="cls-1" d="M88.87,71.23a14.19,14.19,0,0,0,12.62,7.23"/><circle class="cls-4" cx="114.64" cy="100.25" r="14.18"/><path class="cls-1" d="M102.22,93.43a13.31,13.31,0,0,1,0,13.7"/><path class="cls-1" d="M102.22,93.43a14,14,0,0,1,6.83,1.29A14.18,14.18,0,0,1,114.59,114"/><path class="cls-1" d="M114.65,114a13.58,13.58,0,0,1,12.39-6.9"/><path class="cls-1" d="M102.11,107.42a14.18,14.18,0,0,1,24.55-.46"/><path class="cls-1" d="M102.51,107.64a14.19,14.19,0,0,1,12.08,6.42"/><path class="cls-1" d="M114.14,85.68a14.18,14.18,0,0,1-11.63,21.88"/><path class="cls-1" d="M114.9,114.42A14.18,14.18,0,0,1,126.26,93"/><path class="cls-1" d="M102.22,93.43A14,14,0,0,0,113.85,86"/><path class="cls-1" d="M102.24,93.52A13.35,13.35,0,0,0,107,98.45a14.19,14.19,0,0,0,19.27-5.55"/><path class="cls-1" d="M126.32,92.93a13.55,13.55,0,0,0,.65,14.15"/><path class="cls-1" d="M114.13,85.67a14.18,14.18,0,0,0,5.55,19.27c2.51,1.39,4.69,2.38,7.36,2.18"/><path class="cls-1" d="M114.21,85.63a14.19,14.19,0,0,0,12.62,7.23"/><circle class="cls-4" cx="39.5" cy="86.39" r="14.18"/><path class="cls-1" d="M27.26,93.55A13.34,13.34,0,0,1,39,100.61"/><path class="cls-1" d="M27.26,93.55a14.05,14.05,0,0,1,4.62-5.2A14.18,14.18,0,0,1,51.26,93.5"/><path class="cls-1" d="M51.32,93.47a13.57,13.57,0,0,1,.44-14.17"/><path class="cls-1" d="M39.2,100.83a14.17,14.17,0,0,1,5.15-19.37,14,14,0,0,1,7.08-1.92"/><path class="cls-1" d="M39.6,100.6a14.2,14.2,0,0,1,11.72-7.06"/><path class="cls-1" d="M26.74,79.34a14.17,14.17,0,0,1,12.79,21.23"/><path class="cls-1" d="M51.79,93.46A14.19,14.19,0,0,1,39.21,72.68"/><path class="cls-1" d="M27.26,93.55a14,14,0,0,0-.36-13.78"/><path class="cls-1" d="M27.35,93.58A13.4,13.4,0,0,0,34,92a14.17,14.17,0,0,0,5.14-19.37"/><path class="cls-1" d="M39.22,72.62a13.55,13.55,0,0,0,12.47,6.71"/><path class="cls-1" d="M26.73,79.34a14.18,14.18,0,0,0,19.38,5.15c2.48-1.44,4.45-2.81,5.65-5.19"/><path class="cls-1" d="M26.74,79.25a14.2,14.2,0,0,0,12.68-7.1"/><circle class="cls-4" cx="14.79" cy="100.73" r="14.18"/><path class="cls-1" d="M2.56,107.89A13.28,13.28,0,0,1,14.29,115"/><path class="cls-1" d="M2.56,107.89a14,14,0,0,1,4.62-5.2,14.17,14.17,0,0,1,19.37,5.15"/><path class="cls-1" d="M26.61,107.8a13.59,13.59,0,0,1,.44-14.17"/><path class="cls-1" d="M14.5,115.17A14.17,14.17,0,0,1,26.73,93.88"/><path class="cls-1" d="M14.89,114.94a14.18,14.18,0,0,1,11.72-7.06"/><path class="cls-1" d="M2,93.68a14.18,14.18,0,0,1,12.8,21.22"/><path class="cls-1" d="M27.08,107.79A14.18,14.18,0,0,1,14.5,87"/><path class="cls-1" d="M2.56,107.89A14,14,0,0,0,2.2,94.11"/><path class="cls-1" d="M2.64,107.91a13.24,13.24,0,0,0,6.67-1.54A14.18,14.18,0,0,0,14.46,87"/><path class="cls-1" d="M14.52,87A13.56,13.56,0,0,0,27,93.67"/><path class="cls-1" d="M2,93.68A14.18,14.18,0,0,0,27,92.91"/><path class="cls-1" d="M2,93.59a14.17,14.17,0,0,0,7.51-1.91,14.08,14.08,0,0,0,5.17-5.2"/><circle class="cls-4" cx="88.91" cy="57.23" r="14.18"/><path class="cls-1" d="M76.68,64.39a13.28,13.28,0,0,1,11.73,7.06"/><path class="cls-1" d="M76.68,64.39a13.88,13.88,0,0,1,4.62-5.2,14.17,14.17,0,0,1,19.37,5.15"/><path class="cls-1" d="M100.73,64.3a13.57,13.57,0,0,1,.44-14.17"/><path class="cls-1" d="M88.62,71.67a14.17,14.17,0,0,1,12.22-21.29"/><path class="cls-1" d="M89,71.44a14.14,14.14,0,0,1,11.72-7.06"/><path class="cls-1" d="M76.15,50.18A14.18,14.18,0,0,1,89,71.4"/><path class="cls-1" d="M101.2,64.29A14.18,14.18,0,0,1,88.62,43.52"/><path class="cls-1" d="M76.68,64.39a14,14,0,0,0-.37-13.78"/><path class="cls-1" d="M76.76,64.41a13.26,13.26,0,0,0,6.67-1.54,14.19,14.19,0,0,0,5.15-19.38"/><path class="cls-1" d="M88.63,43.46a13.58,13.58,0,0,0,12.48,6.71"/><path class="cls-1" d="M76.15,50.18a14.17,14.17,0,0,0,19.37,5.14c2.48-1.44,4.46-2.8,5.65-5.19"/><path class="cls-1" d="M76.15,50.09A14.16,14.16,0,0,0,88.83,43"/><circle class="cls-4" cx="114.23" cy="43.15" r="14.18"/><path class="cls-1" d="M102,50.31a13.31,13.31,0,0,1,11.73,7.07"/><path class="cls-1" d="M102,50.31a14,14,0,0,1,4.62-5.2A14.18,14.18,0,0,1,126,50.26"/><path class="cls-1" d="M126.05,50.23a13.59,13.59,0,0,1,.44-14.17"/><path class="cls-1" d="M113.94,57.59A14.18,14.18,0,0,1,126.17,36.3"/><path class="cls-1" d="M114.33,57.36a14.24,14.24,0,0,1,11.73-7.06"/><path class="cls-1" d="M101.47,36.1a14.18,14.18,0,0,1,12.8,21.23"/><path class="cls-1" d="M126.52,50.22a14.19,14.19,0,0,1-12.58-20.78"/><path class="cls-1" d="M102,50.31a14,14,0,0,0-.36-13.78"/><path class="cls-1" d="M102.08,50.34a13.36,13.36,0,0,0,6.67-1.55,14.17,14.17,0,0,0,5.15-19.37"/><path class="cls-1" d="M114,29.38a13.54,13.54,0,0,0,12.47,6.71"/><path class="cls-1" d="M101.47,36.1a14.17,14.17,0,0,0,19.37,5.15c2.49-1.44,4.46-2.8,5.65-5.19"/><path class="cls-1" d="M101.47,36a14.17,14.17,0,0,0,12.68-7.1"/></g></g></g></svg>