<svg xmlns="http://www.w3.org/2000/svg" viewBox="0 0 106.6 117.11"><defs><style>.cls-1{fill:none;stroke-linejoin:round;stroke-width:0.41px;}.cls-1,.cls-2{stroke:#231f20;}.cls-2{fill:#fff;stroke-miterlimit:10;stroke-width:1.66px;}</style></defs><title>Asset 8</title><g id="Layer_2" data-name="Layer 2"><g id="draft_3" data-name="draft 3"><g id="Layer_3" data-name="Layer 3"><path class="cls-1" d="M70.15,9.83H70A19.12,19.12,0,1,0,86,18.5,19.1,19.1,0,0,1,70.15,9.83Z"/><path class="cls-1" d="M70.15,9.83A19.1,19.1,0,0,0,86,18.5,19.07,19.07,0,0,0,70.15,9.83Z"/><path class="cls-1" d="M35.62,10.12h.18a19.13,19.13,0,1,1-15.68,9.25A19.09,19.09,0,0,0,35.62,10.12Z"/><path class="cls-1" d="M35.62,10.12a19.09,19.09,0,0,1-15.5,9.24A19.09,19.09,0,0,1,35.62,10.12Z"/><path class="cls-1" d="M35.52,105.86h.17A19.13,19.13,0,1,0,19.78,97,19.11,19.11,0,0,1,35.52,105.86Z"/><path class="cls-1" d="M35.52,105.86A19.11,19.11,0,0,0,19.78,97,19.11,19.11,0,0,0,35.52,105.86Z"/><path class="cls-1" d="M70.05,105.94h-.18a19.1,19.1,0,1,1,15.78-9.08A19.1,19.1,0,0,0,70.05,105.94Z"/><path class="cls-1" d="M70.05,105.94a19.1,19.1,0,0,1,15.6-9.08A19.13,19.13,0,0,1,70.05,105.94Z"/><path class="cls-1" d="M103.2,49.1a1.19,1.19,0,0,1-.08-.16,19.13,19.13,0,1,0-.19,18.21A19.09,19.09,0,0,1,103.2,49.1Z"/><path class="cls-1" d="M103.2,49.1a19.09,19.09,0,0,0-.27,18.05A19.09,19.09,0,0,0,103.2,49.1Z"/><path class="cls-1" d="M3.17,49a1.09,1.09,0,0,1,.08-.15A19.12,19.12,0,1,1,3,67,19.12,19.12,0,0,0,3.17,49Z"/><path class="cls-1" d="M3.17,49A19.12,19.12,0,0,1,3,67,19.09,19.09,0,0,1,3.17,49Z"/><circle class="cls-2" cx="53.11" cy="19.95" r="19.12"/><path class="cls-1" d="M53,.83c-3.31,5.71-9.11,8.91-16.18,8.91"/><path class="cls-1" d="M53,.83C54.51,3.54,56,6.44,56,9.74A19.11,19.11,0,0,1,36.86,28.85"/><path class="cls-1" d="M36.86,29c7.25,0,13,4.14,16.23,10.1"/><path class="cls-1" d="M36.46,9.83A19.12,19.12,0,0,1,53,38.51"/><path class="cls-1" d="M36.46,10.44a19.14,19.14,0,0,1,.31,18.46"/><path class="cls-1" d="M70,9.84A19.12,19.12,0,0,1,53.11,20a19.1,19.1,0,0,1-16.56-9.56"/><path class="cls-1" d="M36.55,29.5a19.13,19.13,0,0,1,32.75-.61"/><path class="cls-1" d="M53,.83A18.89,18.89,0,0,0,69.36,9.74"/><path class="cls-1" d="M53,.91a18.07,18.07,0,0,0-2.71,8.83A19.11,19.11,0,0,0,69.36,28.85"/><path class="cls-1" d="M69.36,29A18.26,18.26,0,0,0,53.09,39"/><path class="cls-1" d="M70,9.83A19.11,19.11,0,0,0,50.86,29c0,3.87.27,7.1,2.25,10.11"/><path class="cls-1" d="M70.08,9.89a19.11,19.11,0,0,0-.3,19.61"/><circle class="cls-2" cx="53.11" cy="58.55" r="19.12"/><path class="cls-1" d="M53,39.44c-3.31,5.71-9.11,8.9-16.18,8.9"/><path class="cls-1" d="M53,39.44C54.51,42.15,56,45,56,48.34A19.12,19.12,0,0,1,36.86,67.46"/><path class="cls-1" d="M36.86,67.56c7.25,0,13,4.14,16.23,10.1"/><path class="cls-1" d="M36.46,48.44A19.12,19.12,0,0,1,53,77.12"/><path class="cls-1" d="M36.46,49.05a19.14,19.14,0,0,1,.31,18.46"/><path class="cls-1" d="M70,48.44A19.12,19.12,0,0,1,36.55,49"/><path class="cls-1" d="M36.55,68.11A19.12,19.12,0,0,1,69.3,67.5"/><path class="cls-1" d="M53,39.44a18.88,18.88,0,0,0,16.32,8.9"/><path class="cls-1" d="M53,39.52a18,18,0,0,0-2.71,8.82A19.12,19.12,0,0,0,69.36,67.46"/><path class="cls-1" d="M69.36,67.56a18.26,18.26,0,0,0-16.27,10"/><path class="cls-1" d="M70,48.44A19.11,19.11,0,0,0,50.86,67.56c0,3.87.18,6.54,2.16,9.56"/><path class="cls-1" d="M70.08,48.5a19.11,19.11,0,0,0-.3,19.61"/><circle class="cls-2" cx="19.95" cy="77.3" r="19.12"/><path class="cls-1" d="M19.88,58.18c-3.31,5.71-9.11,8.91-16.18,8.91"/><path class="cls-1" d="M19.88,58.18c1.47,2.71,2.93,5.61,2.93,8.91A19.12,19.12,0,0,1,3.7,86.2"/><path class="cls-1" d="M3.7,86.3c7.26,0,13,4.14,16.23,10.1"/><path class="cls-1" d="M3.3,67.18A19.12,19.12,0,0,1,22.42,86.3a19,19,0,0,1-2.56,9.56"/><path class="cls-1" d="M3.3,67.79A19,19,0,0,1,5.83,77.3a19,19,0,0,1-2.22,9"/><path class="cls-1" d="M36.81,67.19a19.12,19.12,0,0,1-33.42.55"/><path class="cls-1" d="M3.39,86.85a19.13,19.13,0,0,1,32.75-.61"/><path class="cls-1" d="M19.88,58.18A18.89,18.89,0,0,0,36.2,67.09"/><path class="cls-1" d="M19.79,58.26a18,18,0,0,0-2.71,8.83A19.12,19.12,0,0,0,36.2,86.2"/><path class="cls-1" d="M36.2,86.3a18.27,18.27,0,0,0-16.27,10"/><path class="cls-1" d="M36.81,67.18A19.12,19.12,0,0,0,17.7,86.3c0,3.87.25,7.09,2.23,10.1"/><path class="cls-1" d="M37,66.82a19.15,19.15,0,0,0-.3,19.6"/><circle class="cls-2" cx="53.11" cy="97.16" r="19.12"/><path class="cls-1" d="M53,78C49.73,83.76,43.93,87,36.86,87"/><path class="cls-1" d="M53,78C54.51,80.75,56,83.65,56,87a19.12,19.12,0,0,1-19.11,19.12"/><path class="cls-1" d="M36.86,106.16c7.25,0,13,4.15,16.23,10.11"/><path class="cls-1" d="M36.46,87.05A19.11,19.11,0,0,1,53,115.72"/><path class="cls-1" d="M36.46,87.66a19.14,19.14,0,0,1,.31,18.46"/><path class="cls-1" d="M70,87.05a19.12,19.12,0,0,1-33.42.56"/><path class="cls-1" d="M36.55,106.72a19.12,19.12,0,0,1,32.75-.61"/><path class="cls-1" d="M53,78A18.87,18.87,0,0,0,69.36,87"/><path class="cls-1" d="M53,78.13A18,18,0,0,0,50.24,87a19.12,19.12,0,0,0,19.12,19.12"/><path class="cls-1" d="M69.36,106.16a18.27,18.27,0,0,0-16.27,10"/><path class="cls-1" d="M70,87.05a19.11,19.11,0,0,0-19.11,19.11c0,3.88.25,7.1,2.23,10.11"/><path class="cls-1" d="M70.08,87.11a19.11,19.11,0,0,0-.3,19.61"/><circle class="cls-2" cx="86.34" cy="38.32" r="19.12"/><path class="cls-1" d="M86.27,19.2c-3.3,5.72-9.1,8.91-16.18,8.91"/><path class="cls-1" d="M86.27,19.2c1.47,2.71,2.94,5.61,2.94,8.91A19.12,19.12,0,0,1,70.09,47.23"/><path class="cls-1" d="M70.09,47.32c7.26,0,13,4.15,16.23,10.11"/><path class="cls-1" d="M69.7,28.21A19.11,19.11,0,0,1,86.26,56.88"/><path class="cls-1" d="M69.7,28.82A19.18,19.18,0,0,1,70,47.28"/><path class="cls-1" d="M103.21,28.21a19.12,19.12,0,0,1-33.42.56"/><path class="cls-1" d="M69.78,47.88a19.12,19.12,0,0,1,32.75-.61"/><path class="cls-1" d="M86.27,19.2a18.87,18.87,0,0,0,16.32,8.91"/><path class="cls-1" d="M86.19,19.29a17.9,17.9,0,0,0-2.72,8.82,19.12,19.12,0,0,0,19.12,19.12"/><path class="cls-1" d="M102.59,47.32c-7.26,0-13,4-16.27,10"/><path class="cls-1" d="M103.21,28.21A19.12,19.12,0,0,0,84.09,47.32c0,3.88.25,7.1,2.23,10.11"/><path class="cls-1" d="M103.31,28.27a19.17,19.17,0,0,0-.3,19.61"/><circle class="cls-2" cx="86.65" cy="77.38" r="19.12"/><path class="cls-1" d="M86.58,58.26c-3.3,5.71-9.1,8.91-16.18,8.91"/><path class="cls-1" d="M86.58,58.26c1.47,2.71,2.94,5.61,2.94,8.91A19.12,19.12,0,0,1,70.4,86.28"/><path class="cls-1" d="M70.4,86.38c7.26,0,13,4.14,16.23,10.1"/><path class="cls-1" d="M70,67.26A19.12,19.12,0,0,1,86.57,95.94"/><path class="cls-1" d="M70,67.87a19.11,19.11,0,0,1,.3,18.46"/><path class="cls-1" d="M103.52,67.27a19.12,19.12,0,0,1-33.42.55"/><path class="cls-1" d="M70.09,86.93a19.13,19.13,0,0,1,32.75-.61"/><path class="cls-1" d="M86.58,58.26a18.9,18.9,0,0,0,16.32,8.91"/><path class="cls-1" d="M86.5,58.34a17.93,17.93,0,0,0-2.71,8.83A19.11,19.11,0,0,0,102.9,86.28"/><path class="cls-1" d="M102.9,86.38a18.27,18.27,0,0,0-16.27,10"/><path class="cls-1" d="M103.52,67.26A19.12,19.12,0,0,0,84.4,86.38c0,3.87.27,7.1,2.25,10.11"/><path class="cls-1" d="M103.62,67.32a19.14,19.14,0,0,0-.29,19.61"/><circle class="cls-2" cx="20.03" cy="39.33" r="19.12"/><path class="cls-1" d="M20,20.22c-3.31,5.71-9.11,8.9-16.19,8.9"/><path class="cls-1" d="M20,20.22c1.47,2.7,2.93,5.6,2.93,8.9A19.12,19.12,0,0,1,3.77,48.24"/><path class="cls-1" d="M3.77,48.34c7.26,0,13,4.14,16.24,10.1"/><path class="cls-1" d="M3.38,29.22A19.12,19.12,0,0,1,22.5,48.34a19,19,0,0,1-2.56,9.56"/><path class="cls-1" d="M3.38,29.83a19,19,0,0,1,2.53,9.5,19.14,19.14,0,0,1-2.22,9"/><path class="cls-1" d="M36.89,29.22a19.12,19.12,0,0,1-33.42.56"/><path class="cls-1" d="M3.47,48.89a19.12,19.12,0,0,1,32.75-.61"/><path class="cls-1" d="M20,20.22a18.87,18.87,0,0,0,16.32,8.9"/><path class="cls-1" d="M19.87,20.3a18,18,0,0,0-2.71,8.82A19.12,19.12,0,0,0,36.28,48.24"/><path class="cls-1" d="M36.28,48.34A18.26,18.26,0,0,0,20,58.34"/><path class="cls-1" d="M36.89,29.22A19.12,19.12,0,0,0,17.77,48.34c0,3.87.28,7.1,2.26,10.11"/><path class="cls-1" d="M36.84,28.27A19,19,0,0,0,34,38.32a20.6,20.6,0,0,0,2.29,10"/></g></g></g></svg>