<svg xmlns="http://www.w3.org/2000/svg" viewBox="0 0 126.47 142.16"><defs><style>.cls-1,.cls-2,.cls-3,.cls-4{fill:none;stroke:#231f20;}.cls-1,.cls-2{stroke-miterlimit:10;}.cls-2{stroke-width:0.75px;}.cls-3{stroke-linecap:round;}.cls-3,.cls-4{stroke-linejoin:round;stroke-width:0.25px;}</style></defs><title>Asset 10</title><g id="Layer_2" data-name="Layer 2"><g id="draft_3" data-name="draft 3"><g id="Layer_3" data-name="Layer 3"><circle class="cls-1" cx="63.19" cy="13.9" r="13.4"/><circle class="cls-1" cx="112.56" cy="42.93" r="13.4"/><circle class="cls-1" cx="13.9" cy="42.03" r="13.4"/><circle class="cls-1" cx="38.24" cy="56.33" r="14.2"/><circle class="cls-1" cx="88.09" cy="56.33" r="14.2"/><circle class="cls-1" cx="88.09" cy="84.93" r="14.2"/><circle class="cls-1" cx="38.24" cy="84.39" r="14.2"/><circle class="cls-1" cx="63.26" cy="70.81" r="14.2"/><circle class="cls-1" cx="63.26" cy="42.13" r="14.2"/><circle class="cls-1" cx="63.26" cy="100.03" r="14.2"/><circle class="cls-1" cx="13.9" cy="98.33" r="13.4"/><circle class="cls-1" cx="63.19" cy="128.26" r="13.4"/><circle class="cls-1" cx="112.56" cy="98.33" r="13.4"/><polygon class="cls-2" points="63.19 13.9 13.9 42.03 13.9 98.33 63.19 129.61 113.36 99.37 113.36 42.03 63.19 13.9"/><polygon class="cls-3" points="63.19 13.9 13.9 98.33 113.36 99.37 63.19 13.9"/><polygon class="cls-3" points="13.9 42.03 63.19 129.61 113.36 42.03 13.9 42.03"/><line class="cls-3" x1="63.19" y1="13.9" x2="63.19" y2="129.61"/><line class="cls-3" x1="13.9" y1="42.03" x2="113.36" y2="99.37"/><line class="cls-3" x1="113.36" y1="42.03" x2="13.9" y2="98.33"/><line class="cls-3" x1="88.09" y1="56.33" x2="13.9" y2="42.03"/><line class="cls-3" x1="38.24" y1="56.64" x2="113.36" y2="42.03"/><polygon class="cls-3" points="63.19 42.03 38.24 56.64 37.93 84.73 63.19 98.85 88.67 85.14 88.09 56.33 63.19 42.03"/><polygon class="cls-4" points="63.19 42.03 13.9 98.33 88.67 85.14 63.19 42.03"/><polygon class="cls-4" points="38.24 56.64 88.09 56.33 63.19 129.61 38.24 56.64"/><polygon class="cls-4" points="63.19 13.9 37.93 84.73 88.67 85.14 63.19 13.9"/><polyline class="cls-4" points="113.36 42.03 63.19 98.85 13.9 42.03"/><polygon class="cls-4" points="63.19 42.03 37.93 84.73 113.36 99.37 63.19 42.03"/></g></g></g></svg>